%
M48
M72
T01C0.0197
T02C0.0320
T03C0.0400
T04C0.0670
T05C0.1300
%
T01
X5150Y6150
X5150Y13150
X5150Y20150
X5150Y27150
X26650Y34650
X28650Y34650
T02
X52150Y26650
X53150Y26650
X53150Y22150
X52150Y22150
X52150Y17650
X53150Y17650
X53150Y13150
X52150Y13150
X52150Y8650
X53150Y8650
T03
X50150Y8650
X47150Y8150
X47150Y7150
X47150Y6150
X50150Y5150
X51150Y5150
X52150Y5150
X53150Y5150
X50150Y13150
X47150Y13150
X47150Y14150
X47150Y15150
X50150Y17650
X47150Y20150
X47150Y21150
X47150Y22150
X50150Y22150
X50150Y26650
X47150Y27150
X47150Y28150
X47150Y29150
X50150Y30150
X51150Y30150
X52150Y30150
X53150Y30150
X36650Y30150
X33650Y29150
X33650Y28150
X33650Y27150
X36650Y26150
X36650Y23150
X33650Y22150
X33650Y21150
X33650Y20150
X36650Y19150
X33650Y15150
X33650Y14150
X33650Y13150
X36650Y14150
X33650Y8150
X33650Y7150
X33650Y6150
X36650Y7150
X23150Y5150
X20150Y6150
X20150Y7150
X20150Y8150
X23150Y9150
X23150Y12150
X20150Y13150
X20150Y14150
X20150Y15150
X23150Y16150
X23150Y19150
X20150Y20150
X20150Y21150
X20150Y22150
X23150Y23150
X23150Y26150
X20150Y27150
X20150Y28150
X20150Y29150
X23150Y30150
X26580Y33150
X27650Y33150
X28720Y33150
X9650Y30150
X6650Y29150
X6650Y28150
X6650Y27150
X9650Y26150
X9650Y23150
X6650Y22150
X6650Y21150
X6650Y20150
X9650Y19150
X9650Y16150
X6650Y15150
X6650Y14150
X6650Y13150
X9650Y12150
X9650Y9150
X6650Y8150
X6650Y7150
X6650Y6150
X9650Y5150
X3150Y6080
X3150Y7150
X3150Y8220
X3150Y13080
X3150Y14150
X3150Y15220
X3150Y20080
X3150Y21150
X3150Y22220
X3150Y27080
X3150Y28150
X3150Y29220
T04
X6650Y33150
X9650Y33150
X20650Y33150
X23650Y33150
X31650Y33150
X34650Y33150
X45650Y33150
X48650Y33150
T05
X2650Y2650
X2650Y33650
X52650Y33650
X52650Y2650
M30
