G75*
%MOIN*%
%OFA0B0*%
%FSLAX25Y25*%
%IPPOS*%
%LPD*%
%AMOC8*
5,1,8,0,0,1.08239X$1,22.5*
%
%ADD10C,0.13800*%
%ADD11C,0.07000*%
%ADD12OC8,0.08400*%
%ADD13C,0.06800*%
%ADD14C,0.08200*%
%ADD15C,0.00500*%
%ADD16R,0.05524X0.05524*%
%ADD17C,0.07800*%
D10*
X0026500Y0026500D03*
X0026500Y0336500D03*
X0526500Y0336500D03*
X0526500Y0026500D03*
D11*
X0484919Y0331500D02*
X0484921Y0331579D01*
X0484927Y0331659D01*
X0484937Y0331738D01*
X0484951Y0331816D01*
X0484969Y0331893D01*
X0484990Y0331970D01*
X0485016Y0332045D01*
X0485045Y0332119D01*
X0485078Y0332191D01*
X0485115Y0332262D01*
X0485155Y0332330D01*
X0485198Y0332397D01*
X0485245Y0332461D01*
X0485295Y0332523D01*
X0485348Y0332582D01*
X0485403Y0332639D01*
X0485462Y0332692D01*
X0485523Y0332743D01*
X0485587Y0332791D01*
X0485653Y0332835D01*
X0485721Y0332876D01*
X0485791Y0332913D01*
X0485863Y0332947D01*
X0485937Y0332977D01*
X0486011Y0333004D01*
X0486088Y0333026D01*
X0486165Y0333045D01*
X0486243Y0333060D01*
X0486322Y0333071D01*
X0486401Y0333078D01*
X0486480Y0333081D01*
X0486560Y0333080D01*
X0486639Y0333075D01*
X0486718Y0333066D01*
X0486796Y0333053D01*
X0486874Y0333036D01*
X0486951Y0333015D01*
X0487026Y0332991D01*
X0487100Y0332963D01*
X0487173Y0332931D01*
X0487244Y0332895D01*
X0487313Y0332856D01*
X0487380Y0332813D01*
X0487445Y0332767D01*
X0487508Y0332718D01*
X0487568Y0332666D01*
X0487625Y0332611D01*
X0487679Y0332553D01*
X0487731Y0332492D01*
X0487779Y0332429D01*
X0487824Y0332364D01*
X0487866Y0332296D01*
X0487904Y0332227D01*
X0487939Y0332155D01*
X0487970Y0332082D01*
X0487997Y0332007D01*
X0488021Y0331932D01*
X0488041Y0331855D01*
X0488057Y0331777D01*
X0488069Y0331698D01*
X0488077Y0331619D01*
X0488081Y0331540D01*
X0488081Y0331460D01*
X0488077Y0331381D01*
X0488069Y0331302D01*
X0488057Y0331223D01*
X0488041Y0331145D01*
X0488021Y0331068D01*
X0487997Y0330993D01*
X0487970Y0330918D01*
X0487939Y0330845D01*
X0487904Y0330773D01*
X0487866Y0330704D01*
X0487824Y0330636D01*
X0487779Y0330571D01*
X0487731Y0330508D01*
X0487679Y0330447D01*
X0487625Y0330389D01*
X0487568Y0330334D01*
X0487508Y0330282D01*
X0487445Y0330233D01*
X0487380Y0330187D01*
X0487313Y0330144D01*
X0487244Y0330105D01*
X0487173Y0330069D01*
X0487100Y0330037D01*
X0487026Y0330009D01*
X0486951Y0329985D01*
X0486874Y0329964D01*
X0486796Y0329947D01*
X0486718Y0329934D01*
X0486639Y0329925D01*
X0486560Y0329920D01*
X0486480Y0329919D01*
X0486401Y0329922D01*
X0486322Y0329929D01*
X0486243Y0329940D01*
X0486165Y0329955D01*
X0486088Y0329974D01*
X0486011Y0329996D01*
X0485937Y0330023D01*
X0485863Y0330053D01*
X0485791Y0330087D01*
X0485721Y0330124D01*
X0485653Y0330165D01*
X0485587Y0330209D01*
X0485523Y0330257D01*
X0485462Y0330308D01*
X0485403Y0330361D01*
X0485348Y0330418D01*
X0485295Y0330477D01*
X0485245Y0330539D01*
X0485198Y0330603D01*
X0485155Y0330670D01*
X0485115Y0330738D01*
X0485078Y0330809D01*
X0485045Y0330881D01*
X0485016Y0330955D01*
X0484990Y0331030D01*
X0484969Y0331107D01*
X0484951Y0331184D01*
X0484937Y0331262D01*
X0484927Y0331341D01*
X0484921Y0331421D01*
X0484919Y0331500D01*
X0454919Y0331500D02*
X0454921Y0331579D01*
X0454927Y0331659D01*
X0454937Y0331738D01*
X0454951Y0331816D01*
X0454969Y0331893D01*
X0454990Y0331970D01*
X0455016Y0332045D01*
X0455045Y0332119D01*
X0455078Y0332191D01*
X0455115Y0332262D01*
X0455155Y0332330D01*
X0455198Y0332397D01*
X0455245Y0332461D01*
X0455295Y0332523D01*
X0455348Y0332582D01*
X0455403Y0332639D01*
X0455462Y0332692D01*
X0455523Y0332743D01*
X0455587Y0332791D01*
X0455653Y0332835D01*
X0455721Y0332876D01*
X0455791Y0332913D01*
X0455863Y0332947D01*
X0455937Y0332977D01*
X0456011Y0333004D01*
X0456088Y0333026D01*
X0456165Y0333045D01*
X0456243Y0333060D01*
X0456322Y0333071D01*
X0456401Y0333078D01*
X0456480Y0333081D01*
X0456560Y0333080D01*
X0456639Y0333075D01*
X0456718Y0333066D01*
X0456796Y0333053D01*
X0456874Y0333036D01*
X0456951Y0333015D01*
X0457026Y0332991D01*
X0457100Y0332963D01*
X0457173Y0332931D01*
X0457244Y0332895D01*
X0457313Y0332856D01*
X0457380Y0332813D01*
X0457445Y0332767D01*
X0457508Y0332718D01*
X0457568Y0332666D01*
X0457625Y0332611D01*
X0457679Y0332553D01*
X0457731Y0332492D01*
X0457779Y0332429D01*
X0457824Y0332364D01*
X0457866Y0332296D01*
X0457904Y0332227D01*
X0457939Y0332155D01*
X0457970Y0332082D01*
X0457997Y0332007D01*
X0458021Y0331932D01*
X0458041Y0331855D01*
X0458057Y0331777D01*
X0458069Y0331698D01*
X0458077Y0331619D01*
X0458081Y0331540D01*
X0458081Y0331460D01*
X0458077Y0331381D01*
X0458069Y0331302D01*
X0458057Y0331223D01*
X0458041Y0331145D01*
X0458021Y0331068D01*
X0457997Y0330993D01*
X0457970Y0330918D01*
X0457939Y0330845D01*
X0457904Y0330773D01*
X0457866Y0330704D01*
X0457824Y0330636D01*
X0457779Y0330571D01*
X0457731Y0330508D01*
X0457679Y0330447D01*
X0457625Y0330389D01*
X0457568Y0330334D01*
X0457508Y0330282D01*
X0457445Y0330233D01*
X0457380Y0330187D01*
X0457313Y0330144D01*
X0457244Y0330105D01*
X0457173Y0330069D01*
X0457100Y0330037D01*
X0457026Y0330009D01*
X0456951Y0329985D01*
X0456874Y0329964D01*
X0456796Y0329947D01*
X0456718Y0329934D01*
X0456639Y0329925D01*
X0456560Y0329920D01*
X0456480Y0329919D01*
X0456401Y0329922D01*
X0456322Y0329929D01*
X0456243Y0329940D01*
X0456165Y0329955D01*
X0456088Y0329974D01*
X0456011Y0329996D01*
X0455937Y0330023D01*
X0455863Y0330053D01*
X0455791Y0330087D01*
X0455721Y0330124D01*
X0455653Y0330165D01*
X0455587Y0330209D01*
X0455523Y0330257D01*
X0455462Y0330308D01*
X0455403Y0330361D01*
X0455348Y0330418D01*
X0455295Y0330477D01*
X0455245Y0330539D01*
X0455198Y0330603D01*
X0455155Y0330670D01*
X0455115Y0330738D01*
X0455078Y0330809D01*
X0455045Y0330881D01*
X0455016Y0330955D01*
X0454990Y0331030D01*
X0454969Y0331107D01*
X0454951Y0331184D01*
X0454937Y0331262D01*
X0454927Y0331341D01*
X0454921Y0331421D01*
X0454919Y0331500D01*
X0344919Y0331500D02*
X0344921Y0331579D01*
X0344927Y0331659D01*
X0344937Y0331738D01*
X0344951Y0331816D01*
X0344969Y0331893D01*
X0344990Y0331970D01*
X0345016Y0332045D01*
X0345045Y0332119D01*
X0345078Y0332191D01*
X0345115Y0332262D01*
X0345155Y0332330D01*
X0345198Y0332397D01*
X0345245Y0332461D01*
X0345295Y0332523D01*
X0345348Y0332582D01*
X0345403Y0332639D01*
X0345462Y0332692D01*
X0345523Y0332743D01*
X0345587Y0332791D01*
X0345653Y0332835D01*
X0345721Y0332876D01*
X0345791Y0332913D01*
X0345863Y0332947D01*
X0345937Y0332977D01*
X0346011Y0333004D01*
X0346088Y0333026D01*
X0346165Y0333045D01*
X0346243Y0333060D01*
X0346322Y0333071D01*
X0346401Y0333078D01*
X0346480Y0333081D01*
X0346560Y0333080D01*
X0346639Y0333075D01*
X0346718Y0333066D01*
X0346796Y0333053D01*
X0346874Y0333036D01*
X0346951Y0333015D01*
X0347026Y0332991D01*
X0347100Y0332963D01*
X0347173Y0332931D01*
X0347244Y0332895D01*
X0347313Y0332856D01*
X0347380Y0332813D01*
X0347445Y0332767D01*
X0347508Y0332718D01*
X0347568Y0332666D01*
X0347625Y0332611D01*
X0347679Y0332553D01*
X0347731Y0332492D01*
X0347779Y0332429D01*
X0347824Y0332364D01*
X0347866Y0332296D01*
X0347904Y0332227D01*
X0347939Y0332155D01*
X0347970Y0332082D01*
X0347997Y0332007D01*
X0348021Y0331932D01*
X0348041Y0331855D01*
X0348057Y0331777D01*
X0348069Y0331698D01*
X0348077Y0331619D01*
X0348081Y0331540D01*
X0348081Y0331460D01*
X0348077Y0331381D01*
X0348069Y0331302D01*
X0348057Y0331223D01*
X0348041Y0331145D01*
X0348021Y0331068D01*
X0347997Y0330993D01*
X0347970Y0330918D01*
X0347939Y0330845D01*
X0347904Y0330773D01*
X0347866Y0330704D01*
X0347824Y0330636D01*
X0347779Y0330571D01*
X0347731Y0330508D01*
X0347679Y0330447D01*
X0347625Y0330389D01*
X0347568Y0330334D01*
X0347508Y0330282D01*
X0347445Y0330233D01*
X0347380Y0330187D01*
X0347313Y0330144D01*
X0347244Y0330105D01*
X0347173Y0330069D01*
X0347100Y0330037D01*
X0347026Y0330009D01*
X0346951Y0329985D01*
X0346874Y0329964D01*
X0346796Y0329947D01*
X0346718Y0329934D01*
X0346639Y0329925D01*
X0346560Y0329920D01*
X0346480Y0329919D01*
X0346401Y0329922D01*
X0346322Y0329929D01*
X0346243Y0329940D01*
X0346165Y0329955D01*
X0346088Y0329974D01*
X0346011Y0329996D01*
X0345937Y0330023D01*
X0345863Y0330053D01*
X0345791Y0330087D01*
X0345721Y0330124D01*
X0345653Y0330165D01*
X0345587Y0330209D01*
X0345523Y0330257D01*
X0345462Y0330308D01*
X0345403Y0330361D01*
X0345348Y0330418D01*
X0345295Y0330477D01*
X0345245Y0330539D01*
X0345198Y0330603D01*
X0345155Y0330670D01*
X0345115Y0330738D01*
X0345078Y0330809D01*
X0345045Y0330881D01*
X0345016Y0330955D01*
X0344990Y0331030D01*
X0344969Y0331107D01*
X0344951Y0331184D01*
X0344937Y0331262D01*
X0344927Y0331341D01*
X0344921Y0331421D01*
X0344919Y0331500D01*
X0314919Y0331500D02*
X0314921Y0331579D01*
X0314927Y0331659D01*
X0314937Y0331738D01*
X0314951Y0331816D01*
X0314969Y0331893D01*
X0314990Y0331970D01*
X0315016Y0332045D01*
X0315045Y0332119D01*
X0315078Y0332191D01*
X0315115Y0332262D01*
X0315155Y0332330D01*
X0315198Y0332397D01*
X0315245Y0332461D01*
X0315295Y0332523D01*
X0315348Y0332582D01*
X0315403Y0332639D01*
X0315462Y0332692D01*
X0315523Y0332743D01*
X0315587Y0332791D01*
X0315653Y0332835D01*
X0315721Y0332876D01*
X0315791Y0332913D01*
X0315863Y0332947D01*
X0315937Y0332977D01*
X0316011Y0333004D01*
X0316088Y0333026D01*
X0316165Y0333045D01*
X0316243Y0333060D01*
X0316322Y0333071D01*
X0316401Y0333078D01*
X0316480Y0333081D01*
X0316560Y0333080D01*
X0316639Y0333075D01*
X0316718Y0333066D01*
X0316796Y0333053D01*
X0316874Y0333036D01*
X0316951Y0333015D01*
X0317026Y0332991D01*
X0317100Y0332963D01*
X0317173Y0332931D01*
X0317244Y0332895D01*
X0317313Y0332856D01*
X0317380Y0332813D01*
X0317445Y0332767D01*
X0317508Y0332718D01*
X0317568Y0332666D01*
X0317625Y0332611D01*
X0317679Y0332553D01*
X0317731Y0332492D01*
X0317779Y0332429D01*
X0317824Y0332364D01*
X0317866Y0332296D01*
X0317904Y0332227D01*
X0317939Y0332155D01*
X0317970Y0332082D01*
X0317997Y0332007D01*
X0318021Y0331932D01*
X0318041Y0331855D01*
X0318057Y0331777D01*
X0318069Y0331698D01*
X0318077Y0331619D01*
X0318081Y0331540D01*
X0318081Y0331460D01*
X0318077Y0331381D01*
X0318069Y0331302D01*
X0318057Y0331223D01*
X0318041Y0331145D01*
X0318021Y0331068D01*
X0317997Y0330993D01*
X0317970Y0330918D01*
X0317939Y0330845D01*
X0317904Y0330773D01*
X0317866Y0330704D01*
X0317824Y0330636D01*
X0317779Y0330571D01*
X0317731Y0330508D01*
X0317679Y0330447D01*
X0317625Y0330389D01*
X0317568Y0330334D01*
X0317508Y0330282D01*
X0317445Y0330233D01*
X0317380Y0330187D01*
X0317313Y0330144D01*
X0317244Y0330105D01*
X0317173Y0330069D01*
X0317100Y0330037D01*
X0317026Y0330009D01*
X0316951Y0329985D01*
X0316874Y0329964D01*
X0316796Y0329947D01*
X0316718Y0329934D01*
X0316639Y0329925D01*
X0316560Y0329920D01*
X0316480Y0329919D01*
X0316401Y0329922D01*
X0316322Y0329929D01*
X0316243Y0329940D01*
X0316165Y0329955D01*
X0316088Y0329974D01*
X0316011Y0329996D01*
X0315937Y0330023D01*
X0315863Y0330053D01*
X0315791Y0330087D01*
X0315721Y0330124D01*
X0315653Y0330165D01*
X0315587Y0330209D01*
X0315523Y0330257D01*
X0315462Y0330308D01*
X0315403Y0330361D01*
X0315348Y0330418D01*
X0315295Y0330477D01*
X0315245Y0330539D01*
X0315198Y0330603D01*
X0315155Y0330670D01*
X0315115Y0330738D01*
X0315078Y0330809D01*
X0315045Y0330881D01*
X0315016Y0330955D01*
X0314990Y0331030D01*
X0314969Y0331107D01*
X0314951Y0331184D01*
X0314937Y0331262D01*
X0314927Y0331341D01*
X0314921Y0331421D01*
X0314919Y0331500D01*
X0234919Y0331500D02*
X0234921Y0331579D01*
X0234927Y0331659D01*
X0234937Y0331738D01*
X0234951Y0331816D01*
X0234969Y0331893D01*
X0234990Y0331970D01*
X0235016Y0332045D01*
X0235045Y0332119D01*
X0235078Y0332191D01*
X0235115Y0332262D01*
X0235155Y0332330D01*
X0235198Y0332397D01*
X0235245Y0332461D01*
X0235295Y0332523D01*
X0235348Y0332582D01*
X0235403Y0332639D01*
X0235462Y0332692D01*
X0235523Y0332743D01*
X0235587Y0332791D01*
X0235653Y0332835D01*
X0235721Y0332876D01*
X0235791Y0332913D01*
X0235863Y0332947D01*
X0235937Y0332977D01*
X0236011Y0333004D01*
X0236088Y0333026D01*
X0236165Y0333045D01*
X0236243Y0333060D01*
X0236322Y0333071D01*
X0236401Y0333078D01*
X0236480Y0333081D01*
X0236560Y0333080D01*
X0236639Y0333075D01*
X0236718Y0333066D01*
X0236796Y0333053D01*
X0236874Y0333036D01*
X0236951Y0333015D01*
X0237026Y0332991D01*
X0237100Y0332963D01*
X0237173Y0332931D01*
X0237244Y0332895D01*
X0237313Y0332856D01*
X0237380Y0332813D01*
X0237445Y0332767D01*
X0237508Y0332718D01*
X0237568Y0332666D01*
X0237625Y0332611D01*
X0237679Y0332553D01*
X0237731Y0332492D01*
X0237779Y0332429D01*
X0237824Y0332364D01*
X0237866Y0332296D01*
X0237904Y0332227D01*
X0237939Y0332155D01*
X0237970Y0332082D01*
X0237997Y0332007D01*
X0238021Y0331932D01*
X0238041Y0331855D01*
X0238057Y0331777D01*
X0238069Y0331698D01*
X0238077Y0331619D01*
X0238081Y0331540D01*
X0238081Y0331460D01*
X0238077Y0331381D01*
X0238069Y0331302D01*
X0238057Y0331223D01*
X0238041Y0331145D01*
X0238021Y0331068D01*
X0237997Y0330993D01*
X0237970Y0330918D01*
X0237939Y0330845D01*
X0237904Y0330773D01*
X0237866Y0330704D01*
X0237824Y0330636D01*
X0237779Y0330571D01*
X0237731Y0330508D01*
X0237679Y0330447D01*
X0237625Y0330389D01*
X0237568Y0330334D01*
X0237508Y0330282D01*
X0237445Y0330233D01*
X0237380Y0330187D01*
X0237313Y0330144D01*
X0237244Y0330105D01*
X0237173Y0330069D01*
X0237100Y0330037D01*
X0237026Y0330009D01*
X0236951Y0329985D01*
X0236874Y0329964D01*
X0236796Y0329947D01*
X0236718Y0329934D01*
X0236639Y0329925D01*
X0236560Y0329920D01*
X0236480Y0329919D01*
X0236401Y0329922D01*
X0236322Y0329929D01*
X0236243Y0329940D01*
X0236165Y0329955D01*
X0236088Y0329974D01*
X0236011Y0329996D01*
X0235937Y0330023D01*
X0235863Y0330053D01*
X0235791Y0330087D01*
X0235721Y0330124D01*
X0235653Y0330165D01*
X0235587Y0330209D01*
X0235523Y0330257D01*
X0235462Y0330308D01*
X0235403Y0330361D01*
X0235348Y0330418D01*
X0235295Y0330477D01*
X0235245Y0330539D01*
X0235198Y0330603D01*
X0235155Y0330670D01*
X0235115Y0330738D01*
X0235078Y0330809D01*
X0235045Y0330881D01*
X0235016Y0330955D01*
X0234990Y0331030D01*
X0234969Y0331107D01*
X0234951Y0331184D01*
X0234937Y0331262D01*
X0234927Y0331341D01*
X0234921Y0331421D01*
X0234919Y0331500D01*
X0204919Y0331500D02*
X0204921Y0331579D01*
X0204927Y0331659D01*
X0204937Y0331738D01*
X0204951Y0331816D01*
X0204969Y0331893D01*
X0204990Y0331970D01*
X0205016Y0332045D01*
X0205045Y0332119D01*
X0205078Y0332191D01*
X0205115Y0332262D01*
X0205155Y0332330D01*
X0205198Y0332397D01*
X0205245Y0332461D01*
X0205295Y0332523D01*
X0205348Y0332582D01*
X0205403Y0332639D01*
X0205462Y0332692D01*
X0205523Y0332743D01*
X0205587Y0332791D01*
X0205653Y0332835D01*
X0205721Y0332876D01*
X0205791Y0332913D01*
X0205863Y0332947D01*
X0205937Y0332977D01*
X0206011Y0333004D01*
X0206088Y0333026D01*
X0206165Y0333045D01*
X0206243Y0333060D01*
X0206322Y0333071D01*
X0206401Y0333078D01*
X0206480Y0333081D01*
X0206560Y0333080D01*
X0206639Y0333075D01*
X0206718Y0333066D01*
X0206796Y0333053D01*
X0206874Y0333036D01*
X0206951Y0333015D01*
X0207026Y0332991D01*
X0207100Y0332963D01*
X0207173Y0332931D01*
X0207244Y0332895D01*
X0207313Y0332856D01*
X0207380Y0332813D01*
X0207445Y0332767D01*
X0207508Y0332718D01*
X0207568Y0332666D01*
X0207625Y0332611D01*
X0207679Y0332553D01*
X0207731Y0332492D01*
X0207779Y0332429D01*
X0207824Y0332364D01*
X0207866Y0332296D01*
X0207904Y0332227D01*
X0207939Y0332155D01*
X0207970Y0332082D01*
X0207997Y0332007D01*
X0208021Y0331932D01*
X0208041Y0331855D01*
X0208057Y0331777D01*
X0208069Y0331698D01*
X0208077Y0331619D01*
X0208081Y0331540D01*
X0208081Y0331460D01*
X0208077Y0331381D01*
X0208069Y0331302D01*
X0208057Y0331223D01*
X0208041Y0331145D01*
X0208021Y0331068D01*
X0207997Y0330993D01*
X0207970Y0330918D01*
X0207939Y0330845D01*
X0207904Y0330773D01*
X0207866Y0330704D01*
X0207824Y0330636D01*
X0207779Y0330571D01*
X0207731Y0330508D01*
X0207679Y0330447D01*
X0207625Y0330389D01*
X0207568Y0330334D01*
X0207508Y0330282D01*
X0207445Y0330233D01*
X0207380Y0330187D01*
X0207313Y0330144D01*
X0207244Y0330105D01*
X0207173Y0330069D01*
X0207100Y0330037D01*
X0207026Y0330009D01*
X0206951Y0329985D01*
X0206874Y0329964D01*
X0206796Y0329947D01*
X0206718Y0329934D01*
X0206639Y0329925D01*
X0206560Y0329920D01*
X0206480Y0329919D01*
X0206401Y0329922D01*
X0206322Y0329929D01*
X0206243Y0329940D01*
X0206165Y0329955D01*
X0206088Y0329974D01*
X0206011Y0329996D01*
X0205937Y0330023D01*
X0205863Y0330053D01*
X0205791Y0330087D01*
X0205721Y0330124D01*
X0205653Y0330165D01*
X0205587Y0330209D01*
X0205523Y0330257D01*
X0205462Y0330308D01*
X0205403Y0330361D01*
X0205348Y0330418D01*
X0205295Y0330477D01*
X0205245Y0330539D01*
X0205198Y0330603D01*
X0205155Y0330670D01*
X0205115Y0330738D01*
X0205078Y0330809D01*
X0205045Y0330881D01*
X0205016Y0330955D01*
X0204990Y0331030D01*
X0204969Y0331107D01*
X0204951Y0331184D01*
X0204937Y0331262D01*
X0204927Y0331341D01*
X0204921Y0331421D01*
X0204919Y0331500D01*
X0094919Y0331500D02*
X0094921Y0331579D01*
X0094927Y0331659D01*
X0094937Y0331738D01*
X0094951Y0331816D01*
X0094969Y0331893D01*
X0094990Y0331970D01*
X0095016Y0332045D01*
X0095045Y0332119D01*
X0095078Y0332191D01*
X0095115Y0332262D01*
X0095155Y0332330D01*
X0095198Y0332397D01*
X0095245Y0332461D01*
X0095295Y0332523D01*
X0095348Y0332582D01*
X0095403Y0332639D01*
X0095462Y0332692D01*
X0095523Y0332743D01*
X0095587Y0332791D01*
X0095653Y0332835D01*
X0095721Y0332876D01*
X0095791Y0332913D01*
X0095863Y0332947D01*
X0095937Y0332977D01*
X0096011Y0333004D01*
X0096088Y0333026D01*
X0096165Y0333045D01*
X0096243Y0333060D01*
X0096322Y0333071D01*
X0096401Y0333078D01*
X0096480Y0333081D01*
X0096560Y0333080D01*
X0096639Y0333075D01*
X0096718Y0333066D01*
X0096796Y0333053D01*
X0096874Y0333036D01*
X0096951Y0333015D01*
X0097026Y0332991D01*
X0097100Y0332963D01*
X0097173Y0332931D01*
X0097244Y0332895D01*
X0097313Y0332856D01*
X0097380Y0332813D01*
X0097445Y0332767D01*
X0097508Y0332718D01*
X0097568Y0332666D01*
X0097625Y0332611D01*
X0097679Y0332553D01*
X0097731Y0332492D01*
X0097779Y0332429D01*
X0097824Y0332364D01*
X0097866Y0332296D01*
X0097904Y0332227D01*
X0097939Y0332155D01*
X0097970Y0332082D01*
X0097997Y0332007D01*
X0098021Y0331932D01*
X0098041Y0331855D01*
X0098057Y0331777D01*
X0098069Y0331698D01*
X0098077Y0331619D01*
X0098081Y0331540D01*
X0098081Y0331460D01*
X0098077Y0331381D01*
X0098069Y0331302D01*
X0098057Y0331223D01*
X0098041Y0331145D01*
X0098021Y0331068D01*
X0097997Y0330993D01*
X0097970Y0330918D01*
X0097939Y0330845D01*
X0097904Y0330773D01*
X0097866Y0330704D01*
X0097824Y0330636D01*
X0097779Y0330571D01*
X0097731Y0330508D01*
X0097679Y0330447D01*
X0097625Y0330389D01*
X0097568Y0330334D01*
X0097508Y0330282D01*
X0097445Y0330233D01*
X0097380Y0330187D01*
X0097313Y0330144D01*
X0097244Y0330105D01*
X0097173Y0330069D01*
X0097100Y0330037D01*
X0097026Y0330009D01*
X0096951Y0329985D01*
X0096874Y0329964D01*
X0096796Y0329947D01*
X0096718Y0329934D01*
X0096639Y0329925D01*
X0096560Y0329920D01*
X0096480Y0329919D01*
X0096401Y0329922D01*
X0096322Y0329929D01*
X0096243Y0329940D01*
X0096165Y0329955D01*
X0096088Y0329974D01*
X0096011Y0329996D01*
X0095937Y0330023D01*
X0095863Y0330053D01*
X0095791Y0330087D01*
X0095721Y0330124D01*
X0095653Y0330165D01*
X0095587Y0330209D01*
X0095523Y0330257D01*
X0095462Y0330308D01*
X0095403Y0330361D01*
X0095348Y0330418D01*
X0095295Y0330477D01*
X0095245Y0330539D01*
X0095198Y0330603D01*
X0095155Y0330670D01*
X0095115Y0330738D01*
X0095078Y0330809D01*
X0095045Y0330881D01*
X0095016Y0330955D01*
X0094990Y0331030D01*
X0094969Y0331107D01*
X0094951Y0331184D01*
X0094937Y0331262D01*
X0094927Y0331341D01*
X0094921Y0331421D01*
X0094919Y0331500D01*
X0064919Y0331500D02*
X0064921Y0331579D01*
X0064927Y0331659D01*
X0064937Y0331738D01*
X0064951Y0331816D01*
X0064969Y0331893D01*
X0064990Y0331970D01*
X0065016Y0332045D01*
X0065045Y0332119D01*
X0065078Y0332191D01*
X0065115Y0332262D01*
X0065155Y0332330D01*
X0065198Y0332397D01*
X0065245Y0332461D01*
X0065295Y0332523D01*
X0065348Y0332582D01*
X0065403Y0332639D01*
X0065462Y0332692D01*
X0065523Y0332743D01*
X0065587Y0332791D01*
X0065653Y0332835D01*
X0065721Y0332876D01*
X0065791Y0332913D01*
X0065863Y0332947D01*
X0065937Y0332977D01*
X0066011Y0333004D01*
X0066088Y0333026D01*
X0066165Y0333045D01*
X0066243Y0333060D01*
X0066322Y0333071D01*
X0066401Y0333078D01*
X0066480Y0333081D01*
X0066560Y0333080D01*
X0066639Y0333075D01*
X0066718Y0333066D01*
X0066796Y0333053D01*
X0066874Y0333036D01*
X0066951Y0333015D01*
X0067026Y0332991D01*
X0067100Y0332963D01*
X0067173Y0332931D01*
X0067244Y0332895D01*
X0067313Y0332856D01*
X0067380Y0332813D01*
X0067445Y0332767D01*
X0067508Y0332718D01*
X0067568Y0332666D01*
X0067625Y0332611D01*
X0067679Y0332553D01*
X0067731Y0332492D01*
X0067779Y0332429D01*
X0067824Y0332364D01*
X0067866Y0332296D01*
X0067904Y0332227D01*
X0067939Y0332155D01*
X0067970Y0332082D01*
X0067997Y0332007D01*
X0068021Y0331932D01*
X0068041Y0331855D01*
X0068057Y0331777D01*
X0068069Y0331698D01*
X0068077Y0331619D01*
X0068081Y0331540D01*
X0068081Y0331460D01*
X0068077Y0331381D01*
X0068069Y0331302D01*
X0068057Y0331223D01*
X0068041Y0331145D01*
X0068021Y0331068D01*
X0067997Y0330993D01*
X0067970Y0330918D01*
X0067939Y0330845D01*
X0067904Y0330773D01*
X0067866Y0330704D01*
X0067824Y0330636D01*
X0067779Y0330571D01*
X0067731Y0330508D01*
X0067679Y0330447D01*
X0067625Y0330389D01*
X0067568Y0330334D01*
X0067508Y0330282D01*
X0067445Y0330233D01*
X0067380Y0330187D01*
X0067313Y0330144D01*
X0067244Y0330105D01*
X0067173Y0330069D01*
X0067100Y0330037D01*
X0067026Y0330009D01*
X0066951Y0329985D01*
X0066874Y0329964D01*
X0066796Y0329947D01*
X0066718Y0329934D01*
X0066639Y0329925D01*
X0066560Y0329920D01*
X0066480Y0329919D01*
X0066401Y0329922D01*
X0066322Y0329929D01*
X0066243Y0329940D01*
X0066165Y0329955D01*
X0066088Y0329974D01*
X0066011Y0329996D01*
X0065937Y0330023D01*
X0065863Y0330053D01*
X0065791Y0330087D01*
X0065721Y0330124D01*
X0065653Y0330165D01*
X0065587Y0330209D01*
X0065523Y0330257D01*
X0065462Y0330308D01*
X0065403Y0330361D01*
X0065348Y0330418D01*
X0065295Y0330477D01*
X0065245Y0330539D01*
X0065198Y0330603D01*
X0065155Y0330670D01*
X0065115Y0330738D01*
X0065078Y0330809D01*
X0065045Y0330881D01*
X0065016Y0330955D01*
X0064990Y0331030D01*
X0064969Y0331107D01*
X0064951Y0331184D01*
X0064937Y0331262D01*
X0064927Y0331341D01*
X0064921Y0331421D01*
X0064919Y0331500D01*
D12*
X0096500Y0301500D03*
X0096500Y0261500D03*
X0096500Y0231500D03*
X0096500Y0191500D03*
X0096500Y0161500D03*
X0096500Y0121500D03*
X0096500Y0091500D03*
X0096500Y0051500D03*
X0231500Y0051500D03*
X0231500Y0091500D03*
X0231500Y0121500D03*
X0231500Y0161500D03*
X0231500Y0191500D03*
X0231500Y0231500D03*
X0231500Y0261500D03*
X0231500Y0301500D03*
X0366500Y0301500D03*
X0366500Y0261500D03*
X0366500Y0231500D03*
X0366500Y0191500D03*
X0366500Y0141500D03*
X0366500Y0071500D03*
X0501500Y0086500D03*
X0501500Y0131500D03*
X0501500Y0176500D03*
X0501500Y0221500D03*
X0501500Y0266500D03*
D13*
X0471500Y0271500D03*
X0471500Y0281500D03*
X0471500Y0291500D03*
X0471500Y0221500D03*
X0471500Y0211500D03*
X0471500Y0201500D03*
X0471500Y0151500D03*
X0471500Y0141500D03*
X0471500Y0131500D03*
X0471500Y0081500D03*
X0471500Y0071500D03*
X0471500Y0061500D03*
X0336500Y0061500D03*
X0336500Y0071500D03*
X0336500Y0081500D03*
X0336500Y0131500D03*
X0336500Y0141500D03*
X0336500Y0151500D03*
X0336500Y0201500D03*
X0336500Y0211500D03*
X0336500Y0221500D03*
X0336500Y0271500D03*
X0336500Y0281500D03*
X0336500Y0291500D03*
X0201500Y0291500D03*
X0201500Y0281500D03*
X0201500Y0271500D03*
X0201500Y0221500D03*
X0201500Y0211500D03*
X0201500Y0201500D03*
X0201500Y0151500D03*
X0201500Y0141500D03*
X0201500Y0131500D03*
X0201500Y0081500D03*
X0201500Y0071500D03*
X0201500Y0061500D03*
X0066500Y0061500D03*
X0066500Y0071500D03*
X0066500Y0081500D03*
X0066500Y0131500D03*
X0066500Y0141500D03*
X0066500Y0151500D03*
X0066500Y0201500D03*
X0066500Y0211500D03*
X0066500Y0221500D03*
X0066500Y0271500D03*
X0066500Y0281500D03*
X0066500Y0291500D03*
D14*
X0521500Y0266500D03*
X0531500Y0266500D03*
X0531500Y0221500D03*
X0521500Y0221500D03*
X0521500Y0176500D03*
X0531500Y0176500D03*
X0531500Y0131500D03*
X0521500Y0131500D03*
X0521500Y0086500D03*
X0531500Y0086500D03*
D15*
X0288565Y0330403D02*
X0288280Y0330128D01*
X0287941Y0329923D01*
X0287565Y0329798D01*
X0287170Y0329760D01*
X0286787Y0329807D01*
X0286423Y0329937D01*
X0286098Y0330146D01*
X0285827Y0330421D01*
X0285624Y0330750D01*
X0285500Y0331116D01*
X0285460Y0331500D01*
X0285494Y0331882D01*
X0285612Y0332246D01*
X0285808Y0332575D01*
X0286072Y0332852D01*
X0286392Y0333063D01*
X0286750Y0333198D01*
X0287130Y0333250D01*
X0287530Y0333215D01*
X0287913Y0333092D01*
X0288259Y0332886D01*
X0288550Y0332609D01*
X0288772Y0332274D01*
X0288915Y0331898D01*
X0288970Y0331500D01*
X0288919Y0331107D01*
X0288781Y0330735D01*
X0288565Y0330403D01*
X0288640Y0330517D02*
X0285768Y0330517D01*
X0285534Y0331016D02*
X0288885Y0331016D01*
X0288968Y0331514D02*
X0285461Y0331514D01*
X0285536Y0332013D02*
X0288871Y0332013D01*
X0288615Y0332512D02*
X0285770Y0332512D01*
X0286311Y0333010D02*
X0288051Y0333010D01*
X0288100Y0330019D02*
X0286296Y0330019D01*
X0278199Y0331067D02*
X0278061Y0330695D01*
X0277845Y0330363D01*
X0277560Y0330088D01*
X0277221Y0329882D01*
X0276845Y0329758D01*
X0276450Y0329720D01*
X0276067Y0329767D01*
X0275703Y0329897D01*
X0275378Y0330106D01*
X0275107Y0330381D01*
X0274904Y0330710D01*
X0274780Y0331076D01*
X0274740Y0331460D01*
X0274774Y0331841D01*
X0274892Y0332206D01*
X0275088Y0332535D01*
X0275352Y0332812D01*
X0275672Y0333023D01*
X0276030Y0333158D01*
X0276410Y0333210D01*
X0276810Y0333175D01*
X0277193Y0333052D01*
X0277539Y0332846D01*
X0277830Y0332569D01*
X0278052Y0332234D01*
X0278195Y0331858D01*
X0278250Y0331460D01*
X0278199Y0331067D01*
X0278180Y0331016D02*
X0274800Y0331016D01*
X0274745Y0331514D02*
X0278242Y0331514D01*
X0278136Y0332013D02*
X0274829Y0332013D01*
X0275074Y0332512D02*
X0277868Y0332512D01*
X0277263Y0333010D02*
X0275652Y0333010D01*
X0275023Y0330517D02*
X0277946Y0330517D01*
X0277447Y0330019D02*
X0275513Y0330019D01*
X0267499Y0331097D02*
X0267362Y0330725D01*
X0267145Y0330393D01*
X0266860Y0330117D01*
X0266521Y0329912D01*
X0266145Y0329788D01*
X0265750Y0329750D01*
X0265367Y0329796D01*
X0265003Y0329927D01*
X0264678Y0330135D01*
X0264407Y0330411D01*
X0264205Y0330740D01*
X0264080Y0331106D01*
X0264040Y0331490D01*
X0264074Y0331871D01*
X0264192Y0332236D01*
X0264388Y0332565D01*
X0264653Y0332842D01*
X0264972Y0333053D01*
X0265331Y0333188D01*
X0265710Y0333240D01*
X0266111Y0333205D01*
X0266493Y0333081D01*
X0266839Y0332876D01*
X0267130Y0332599D01*
X0267353Y0332264D01*
X0267495Y0331888D01*
X0267550Y0331490D01*
X0267499Y0331097D01*
X0267469Y0331016D02*
X0264111Y0331016D01*
X0264042Y0331514D02*
X0267547Y0331514D01*
X0267448Y0332013D02*
X0264120Y0332013D01*
X0264357Y0332512D02*
X0267189Y0332512D01*
X0266614Y0333010D02*
X0264907Y0333010D01*
X0264342Y0330517D02*
X0267226Y0330517D01*
X0266698Y0330019D02*
X0264860Y0330019D01*
X0033188Y0292669D02*
X0033240Y0292290D01*
X0033205Y0291889D01*
X0033081Y0291507D01*
X0032876Y0291161D01*
X0032599Y0290870D01*
X0032264Y0290647D01*
X0031888Y0290505D01*
X0031490Y0290450D01*
X0031097Y0290501D01*
X0030725Y0290638D01*
X0030393Y0290855D01*
X0030117Y0291140D01*
X0029912Y0291479D01*
X0029788Y0291855D01*
X0029750Y0292250D01*
X0029796Y0292633D01*
X0029927Y0292997D01*
X0030135Y0293322D01*
X0030411Y0293593D01*
X0030740Y0293795D01*
X0031106Y0293920D01*
X0031490Y0293960D01*
X0031871Y0293926D01*
X0032236Y0293808D01*
X0032565Y0293612D01*
X0032842Y0293347D01*
X0033053Y0293028D01*
X0033188Y0292669D01*
X0033193Y0292631D02*
X0029796Y0292631D01*
X0029761Y0292132D02*
X0033226Y0292132D01*
X0033122Y0291634D02*
X0029861Y0291634D01*
X0030122Y0291135D02*
X0032852Y0291135D01*
X0032236Y0290637D02*
X0030729Y0290637D01*
X0030012Y0293129D02*
X0032986Y0293129D01*
X0032538Y0293628D02*
X0030468Y0293628D01*
X0031460Y0283260D02*
X0031076Y0283220D01*
X0030710Y0283096D01*
X0030381Y0282893D01*
X0030106Y0282622D01*
X0029897Y0282297D01*
X0029767Y0281933D01*
X0029720Y0281550D01*
X0029758Y0281155D01*
X0029882Y0280779D01*
X0030088Y0280440D01*
X0030363Y0280155D01*
X0030695Y0279939D01*
X0031067Y0279801D01*
X0031460Y0279750D01*
X0031858Y0279805D01*
X0032234Y0279948D01*
X0032569Y0280170D01*
X0032846Y0280461D01*
X0033052Y0280807D01*
X0033175Y0281190D01*
X0033210Y0281590D01*
X0033158Y0281970D01*
X0033023Y0282328D01*
X0032812Y0282648D01*
X0032535Y0282912D01*
X0032206Y0283108D01*
X0031841Y0283226D01*
X0031460Y0283260D01*
X0030895Y0283159D02*
X0032049Y0283159D01*
X0032799Y0282660D02*
X0030144Y0282660D01*
X0029849Y0282162D02*
X0033086Y0282162D01*
X0033200Y0281663D02*
X0029734Y0281663D01*
X0029757Y0281165D02*
X0033167Y0281165D01*
X0032968Y0280666D02*
X0029951Y0280666D01*
X0030351Y0280168D02*
X0032566Y0280168D01*
X0031882Y0272506D02*
X0032246Y0272388D01*
X0032575Y0272192D01*
X0032852Y0271928D01*
X0033063Y0271608D01*
X0033198Y0271250D01*
X0033250Y0270870D01*
X0033215Y0270470D01*
X0033092Y0270087D01*
X0032886Y0269741D01*
X0032609Y0269450D01*
X0032274Y0269228D01*
X0031898Y0269085D01*
X0031500Y0269030D01*
X0031107Y0269081D01*
X0030735Y0269219D01*
X0030403Y0269435D01*
X0030128Y0269720D01*
X0029923Y0270059D01*
X0029798Y0270435D01*
X0029760Y0270830D01*
X0029807Y0271213D01*
X0029937Y0271577D01*
X0030146Y0271902D01*
X0030421Y0272173D01*
X0030750Y0272376D01*
X0031116Y0272500D01*
X0031500Y0272540D01*
X0031882Y0272506D01*
X0032575Y0272192D02*
X0030451Y0272192D01*
X0030012Y0271693D02*
X0033007Y0271693D01*
X0033206Y0271195D02*
X0029804Y0271195D01*
X0029773Y0270696D02*
X0033235Y0270696D01*
X0033127Y0270198D02*
X0029877Y0270198D01*
X0030148Y0269699D02*
X0032846Y0269699D01*
X0032203Y0269201D02*
X0030784Y0269201D01*
X0031490Y0223960D02*
X0031106Y0223920D01*
X0030740Y0223795D01*
X0030411Y0223593D01*
X0030135Y0223322D01*
X0029927Y0222997D01*
X0029796Y0222633D01*
X0029750Y0222250D01*
X0029788Y0221855D01*
X0029912Y0221479D01*
X0030117Y0221140D01*
X0030393Y0220855D01*
X0030725Y0220638D01*
X0031097Y0220501D01*
X0031490Y0220450D01*
X0031888Y0220505D01*
X0032264Y0220647D01*
X0032599Y0220870D01*
X0032876Y0221161D01*
X0033081Y0221507D01*
X0033205Y0221889D01*
X0033240Y0222290D01*
X0033188Y0222669D01*
X0033053Y0223028D01*
X0032842Y0223347D01*
X0032565Y0223612D01*
X0032236Y0223808D01*
X0031871Y0223926D01*
X0031490Y0223960D01*
X0030859Y0223836D02*
X0032149Y0223836D01*
X0032848Y0223338D02*
X0030151Y0223338D01*
X0029871Y0222839D02*
X0033124Y0222839D01*
X0033233Y0222341D02*
X0029761Y0222341D01*
X0029792Y0221842D02*
X0033190Y0221842D01*
X0032985Y0221343D02*
X0029994Y0221343D01*
X0030408Y0220845D02*
X0032562Y0220845D01*
X0031841Y0213226D02*
X0032206Y0213108D01*
X0032535Y0212912D01*
X0032812Y0212648D01*
X0033023Y0212328D01*
X0033158Y0211970D01*
X0033210Y0211590D01*
X0033175Y0211190D01*
X0033052Y0210807D01*
X0032846Y0210461D01*
X0032569Y0210170D01*
X0032234Y0209948D01*
X0031858Y0209805D01*
X0031460Y0209750D01*
X0031067Y0209801D01*
X0030695Y0209939D01*
X0030363Y0210155D01*
X0030088Y0210440D01*
X0029882Y0210779D01*
X0029758Y0211155D01*
X0029720Y0211550D01*
X0029767Y0211933D01*
X0029897Y0212297D01*
X0030106Y0212622D01*
X0030381Y0212893D01*
X0030710Y0213096D01*
X0031076Y0213220D01*
X0031460Y0213260D01*
X0031841Y0213226D01*
X0032580Y0212869D02*
X0030356Y0212869D01*
X0029944Y0212370D02*
X0032995Y0212370D01*
X0033171Y0211872D02*
X0029759Y0211872D01*
X0029737Y0211373D02*
X0033191Y0211373D01*
X0033073Y0210875D02*
X0029851Y0210875D01*
X0030149Y0210376D02*
X0032765Y0210376D01*
X0032049Y0209878D02*
X0030860Y0209878D01*
X0031500Y0202540D02*
X0031116Y0202500D01*
X0030750Y0202376D01*
X0030421Y0202173D01*
X0030146Y0201902D01*
X0029937Y0201577D01*
X0029807Y0201213D01*
X0029760Y0200830D01*
X0029798Y0200435D01*
X0029923Y0200059D01*
X0030128Y0199720D01*
X0030403Y0199435D01*
X0030735Y0199219D01*
X0031107Y0199081D01*
X0031500Y0199030D01*
X0031898Y0199085D01*
X0032274Y0199228D01*
X0032609Y0199450D01*
X0032886Y0199741D01*
X0033092Y0200087D01*
X0033215Y0200470D01*
X0033250Y0200870D01*
X0033198Y0201250D01*
X0033063Y0201608D01*
X0032852Y0201928D01*
X0032575Y0202192D01*
X0032246Y0202388D01*
X0031882Y0202506D01*
X0031500Y0202540D01*
X0030821Y0202400D02*
X0032209Y0202400D01*
X0032869Y0201902D02*
X0030145Y0201902D01*
X0029875Y0201403D02*
X0033141Y0201403D01*
X0033245Y0200905D02*
X0029769Y0200905D01*
X0029808Y0200406D02*
X0033195Y0200406D01*
X0032985Y0199908D02*
X0030014Y0199908D01*
X0030443Y0199409D02*
X0032548Y0199409D01*
X0031490Y0153960D02*
X0031106Y0153920D01*
X0030740Y0153795D01*
X0030411Y0153593D01*
X0030135Y0153322D01*
X0029927Y0152997D01*
X0029796Y0152633D01*
X0029750Y0152250D01*
X0029788Y0151855D01*
X0029912Y0151479D01*
X0030117Y0151140D01*
X0030393Y0150855D01*
X0030725Y0150638D01*
X0031097Y0150501D01*
X0031490Y0150450D01*
X0031888Y0150505D01*
X0032264Y0150647D01*
X0032599Y0150870D01*
X0032876Y0151161D01*
X0033081Y0151507D01*
X0033205Y0151889D01*
X0033240Y0152290D01*
X0033188Y0152669D01*
X0033053Y0153028D01*
X0032842Y0153347D01*
X0032565Y0153612D01*
X0032236Y0153808D01*
X0031871Y0153926D01*
X0031490Y0153960D01*
X0030363Y0153546D02*
X0032634Y0153546D01*
X0033040Y0153047D02*
X0029960Y0153047D01*
X0029786Y0152549D02*
X0033204Y0152549D01*
X0033219Y0152050D02*
X0029769Y0152050D01*
X0029888Y0151552D02*
X0033096Y0151552D01*
X0032774Y0151053D02*
X0030201Y0151053D01*
X0030951Y0150555D02*
X0032020Y0150555D01*
X0031460Y0143260D02*
X0031076Y0143220D01*
X0030710Y0143096D01*
X0030381Y0142893D01*
X0030106Y0142622D01*
X0029897Y0142297D01*
X0029767Y0141933D01*
X0029720Y0141550D01*
X0029758Y0141155D01*
X0029882Y0140779D01*
X0030088Y0140440D01*
X0030363Y0140155D01*
X0030695Y0139939D01*
X0031067Y0139801D01*
X0031460Y0139750D01*
X0031858Y0139805D01*
X0032234Y0139948D01*
X0032569Y0140170D01*
X0032846Y0140461D01*
X0033052Y0140807D01*
X0033175Y0141190D01*
X0033210Y0141590D01*
X0033158Y0141970D01*
X0033023Y0142328D01*
X0032812Y0142648D01*
X0032535Y0142912D01*
X0032206Y0143108D01*
X0031841Y0143226D01*
X0031460Y0143260D01*
X0030680Y0143077D02*
X0032258Y0143077D01*
X0032858Y0142579D02*
X0030078Y0142579D01*
X0029819Y0142080D02*
X0033117Y0142080D01*
X0033209Y0141582D02*
X0029724Y0141582D01*
X0029782Y0141083D02*
X0033141Y0141083D01*
X0032920Y0140585D02*
X0030000Y0140585D01*
X0030469Y0140086D02*
X0032443Y0140086D01*
X0031882Y0132506D02*
X0032246Y0132388D01*
X0032575Y0132192D01*
X0032852Y0131928D01*
X0033063Y0131608D01*
X0033198Y0131250D01*
X0033250Y0130870D01*
X0033215Y0130470D01*
X0033092Y0130087D01*
X0032886Y0129741D01*
X0032609Y0129450D01*
X0032274Y0129228D01*
X0031898Y0129085D01*
X0031500Y0129030D01*
X0031107Y0129081D01*
X0030735Y0129219D01*
X0030403Y0129435D01*
X0030128Y0129720D01*
X0029923Y0130059D01*
X0029798Y0130435D01*
X0029760Y0130830D01*
X0029807Y0131213D01*
X0029937Y0131577D01*
X0030146Y0131902D01*
X0030421Y0132173D01*
X0030750Y0132376D01*
X0031116Y0132500D01*
X0031500Y0132540D01*
X0031882Y0132506D01*
X0032661Y0132110D02*
X0030357Y0132110D01*
X0029959Y0131611D02*
X0033061Y0131611D01*
X0033217Y0131113D02*
X0029795Y0131113D01*
X0029781Y0130614D02*
X0033228Y0130614D01*
X0033101Y0130116D02*
X0029904Y0130116D01*
X0030227Y0129617D02*
X0032769Y0129617D01*
X0031987Y0129119D02*
X0031005Y0129119D01*
X0031490Y0083960D02*
X0031106Y0083920D01*
X0030740Y0083795D01*
X0030411Y0083593D01*
X0030135Y0083322D01*
X0029927Y0082997D01*
X0029796Y0082633D01*
X0029750Y0082250D01*
X0029788Y0081855D01*
X0029912Y0081479D01*
X0030117Y0081140D01*
X0030393Y0080855D01*
X0030725Y0080638D01*
X0031097Y0080501D01*
X0031490Y0080450D01*
X0031888Y0080505D01*
X0032264Y0080647D01*
X0032599Y0080870D01*
X0032876Y0081161D01*
X0033081Y0081507D01*
X0033205Y0081889D01*
X0033240Y0082290D01*
X0033188Y0082669D01*
X0033053Y0083028D01*
X0032842Y0083347D01*
X0032565Y0083612D01*
X0032236Y0083808D01*
X0031871Y0083926D01*
X0031490Y0083960D01*
X0030673Y0083754D02*
X0032325Y0083754D01*
X0032902Y0083256D02*
X0030093Y0083256D01*
X0029841Y0082757D02*
X0033155Y0082757D01*
X0033237Y0082259D02*
X0029751Y0082259D01*
X0029819Y0081760D02*
X0033163Y0081760D01*
X0032936Y0081262D02*
X0030044Y0081262D01*
X0030533Y0080763D02*
X0032439Y0080763D01*
X0031841Y0073226D02*
X0032206Y0073108D01*
X0032535Y0072912D01*
X0032812Y0072648D01*
X0033023Y0072328D01*
X0033158Y0071970D01*
X0033210Y0071590D01*
X0033175Y0071190D01*
X0033052Y0070807D01*
X0032846Y0070461D01*
X0032569Y0070170D01*
X0032234Y0069948D01*
X0031858Y0069805D01*
X0031460Y0069750D01*
X0031067Y0069801D01*
X0030695Y0069939D01*
X0030363Y0070155D01*
X0030088Y0070440D01*
X0029882Y0070779D01*
X0029758Y0071155D01*
X0029720Y0071550D01*
X0029767Y0071933D01*
X0029897Y0072297D01*
X0030106Y0072622D01*
X0030381Y0072893D01*
X0030710Y0073096D01*
X0031076Y0073220D01*
X0031460Y0073260D01*
X0031841Y0073226D01*
X0032666Y0072787D02*
X0030273Y0072787D01*
X0029894Y0072289D02*
X0033038Y0072289D01*
X0033183Y0071790D02*
X0029749Y0071790D01*
X0029745Y0071292D02*
X0033184Y0071292D01*
X0033043Y0070793D02*
X0029878Y0070793D01*
X0030228Y0070295D02*
X0032688Y0070295D01*
X0031791Y0069796D02*
X0031108Y0069796D01*
X0031500Y0062540D02*
X0031116Y0062500D01*
X0030750Y0062376D01*
X0030421Y0062173D01*
X0030146Y0061902D01*
X0029937Y0061577D01*
X0029807Y0061213D01*
X0029760Y0060830D01*
X0029798Y0060435D01*
X0029923Y0060059D01*
X0030128Y0059720D01*
X0030403Y0059435D01*
X0030735Y0059219D01*
X0031107Y0059081D01*
X0031500Y0059030D01*
X0031898Y0059085D01*
X0032274Y0059228D01*
X0032609Y0059450D01*
X0032886Y0059741D01*
X0033092Y0060087D01*
X0033215Y0060470D01*
X0033250Y0060870D01*
X0033198Y0061250D01*
X0033063Y0061608D01*
X0032852Y0061928D01*
X0032575Y0062192D01*
X0032246Y0062388D01*
X0031882Y0062506D01*
X0031500Y0062540D01*
X0030657Y0062318D02*
X0032363Y0062318D01*
X0032923Y0061820D02*
X0030093Y0061820D01*
X0029846Y0061321D02*
X0033171Y0061321D01*
X0033246Y0060823D02*
X0029761Y0060823D01*
X0029835Y0060324D02*
X0033168Y0060324D01*
X0032937Y0059826D02*
X0030064Y0059826D01*
X0030568Y0059327D02*
X0032425Y0059327D01*
D16*
X0051500Y0067366D03*
X0051500Y0075634D03*
X0051500Y0137366D03*
X0051500Y0145634D03*
X0051500Y0207366D03*
X0051500Y0215634D03*
X0051500Y0277366D03*
X0051500Y0285634D03*
X0272366Y0346500D03*
X0280634Y0346500D03*
D17*
X0501500Y0301500D03*
X0511500Y0301500D03*
X0521500Y0301500D03*
X0531500Y0301500D03*
X0531500Y0051500D03*
X0521500Y0051500D03*
X0511500Y0051500D03*
X0501500Y0051500D03*
M02*
