G75*
%MOIN*%
%OFA0B0*%
%FSLAX25Y25*%
%IPPOS*%
%LPD*%
%AMOC8*
5,1,8,0,0,1.08239X$1,22.5*
%
%ADD10C,0.01600*%
%ADD11C,0.00400*%
%ADD12C,0.01000*%
%ADD13C,0.00600*%
%ADD14C,0.00100*%
%ADD15C,0.00800*%
%ADD16C,0.01575*%
%ADD17C,0.00700*%
%ADD18C,0.00500*%
D10*
X0216500Y0041500D02*
X0216500Y0311500D01*
X0196500Y0321500D02*
X0196500Y0341500D01*
X0111500Y0341500D01*
X0111500Y0334200D01*
X0106500Y0334200D01*
X0106500Y0329200D01*
X0111500Y0329200D01*
X0111500Y0334200D01*
X0119000Y0331500D02*
X0124000Y0331500D01*
X0121500Y0329000D02*
X0121500Y0334000D01*
X0111500Y0329200D02*
X0111500Y0321500D01*
X0196500Y0321500D01*
X0189000Y0331500D02*
X0184000Y0331500D01*
X0351500Y0311500D02*
X0351500Y0041500D01*
X0258980Y0161917D02*
X0258982Y0161965D01*
X0258988Y0162013D01*
X0258998Y0162060D01*
X0259011Y0162106D01*
X0259029Y0162151D01*
X0259049Y0162195D01*
X0259074Y0162237D01*
X0259102Y0162276D01*
X0259132Y0162313D01*
X0259166Y0162347D01*
X0259203Y0162379D01*
X0259241Y0162408D01*
X0259282Y0162433D01*
X0259325Y0162455D01*
X0259370Y0162473D01*
X0259416Y0162487D01*
X0259463Y0162498D01*
X0259511Y0162505D01*
X0259559Y0162508D01*
X0259607Y0162507D01*
X0259655Y0162502D01*
X0259703Y0162493D01*
X0259749Y0162481D01*
X0259794Y0162464D01*
X0259838Y0162444D01*
X0259880Y0162421D01*
X0259920Y0162394D01*
X0259958Y0162364D01*
X0259993Y0162331D01*
X0260025Y0162295D01*
X0260055Y0162257D01*
X0260081Y0162216D01*
X0260103Y0162173D01*
X0260123Y0162129D01*
X0260138Y0162084D01*
X0260150Y0162037D01*
X0260158Y0161989D01*
X0260162Y0161941D01*
X0260162Y0161893D01*
X0260158Y0161845D01*
X0260150Y0161797D01*
X0260138Y0161750D01*
X0260123Y0161705D01*
X0260103Y0161661D01*
X0260081Y0161618D01*
X0260055Y0161577D01*
X0260025Y0161539D01*
X0259993Y0161503D01*
X0259958Y0161470D01*
X0259920Y0161440D01*
X0259880Y0161413D01*
X0259838Y0161390D01*
X0259794Y0161370D01*
X0259749Y0161353D01*
X0259703Y0161341D01*
X0259655Y0161332D01*
X0259607Y0161327D01*
X0259559Y0161326D01*
X0259511Y0161329D01*
X0259463Y0161336D01*
X0259416Y0161347D01*
X0259370Y0161361D01*
X0259325Y0161379D01*
X0259282Y0161401D01*
X0259241Y0161426D01*
X0259203Y0161455D01*
X0259166Y0161487D01*
X0259132Y0161521D01*
X0259102Y0161558D01*
X0259074Y0161597D01*
X0259049Y0161639D01*
X0259029Y0161683D01*
X0259011Y0161728D01*
X0258998Y0161774D01*
X0258988Y0161821D01*
X0258982Y0161869D01*
X0258980Y0161917D01*
X0361500Y0321500D02*
X0361500Y0329200D01*
X0356500Y0329200D01*
X0356500Y0334200D01*
X0361500Y0334200D01*
X0361500Y0341500D01*
X0446500Y0341500D01*
X0446500Y0321500D01*
X0361500Y0321500D01*
X0361500Y0329200D02*
X0361500Y0334200D01*
X0369000Y0331500D02*
X0374000Y0331500D01*
X0371500Y0329000D02*
X0371500Y0334000D01*
X0434000Y0331500D02*
X0439000Y0331500D01*
D11*
X0287953Y0079552D02*
X0287953Y0078518D01*
X0287953Y0079035D02*
X0284850Y0079035D01*
X0284850Y0078518D02*
X0284850Y0079552D01*
X0285367Y0077364D02*
X0287436Y0077364D01*
X0287953Y0076847D01*
X0287953Y0075295D01*
X0284850Y0075295D01*
X0284850Y0076847D01*
X0285367Y0077364D01*
X0286401Y0074141D02*
X0285884Y0073624D01*
X0285884Y0072073D01*
X0284850Y0072073D02*
X0287953Y0072073D01*
X0287953Y0073624D01*
X0287436Y0074141D01*
X0286401Y0074141D01*
X0285367Y0070918D02*
X0287953Y0070918D01*
X0287953Y0068850D02*
X0285367Y0068850D01*
X0284850Y0069367D01*
X0284850Y0070401D01*
X0285367Y0070918D01*
X0277953Y0070901D02*
X0277953Y0069867D01*
X0277436Y0069350D01*
X0275367Y0069350D01*
X0274850Y0069867D01*
X0274850Y0070901D01*
X0275367Y0071418D01*
X0276401Y0071418D01*
X0276401Y0070384D01*
X0277436Y0071418D02*
X0277953Y0070901D01*
X0277953Y0072573D02*
X0274850Y0074641D01*
X0277953Y0074641D01*
X0277953Y0075795D02*
X0277953Y0077347D01*
X0277436Y0077864D01*
X0275367Y0077864D01*
X0274850Y0077347D01*
X0274850Y0075795D01*
X0277953Y0075795D01*
X0277953Y0072573D02*
X0274850Y0072573D01*
X0267953Y0073090D02*
X0267436Y0072573D01*
X0265367Y0072573D01*
X0264850Y0073090D01*
X0264850Y0074124D01*
X0265367Y0074641D01*
X0265367Y0075795D02*
X0264850Y0076313D01*
X0264850Y0077347D01*
X0265367Y0077864D01*
X0265367Y0075795D02*
X0267436Y0075795D01*
X0267953Y0076313D01*
X0267953Y0077347D01*
X0267436Y0077864D01*
X0267436Y0074641D02*
X0267953Y0074124D01*
X0267953Y0073090D01*
X0267953Y0071418D02*
X0265884Y0071418D01*
X0264850Y0070384D01*
X0265884Y0069350D01*
X0267953Y0069350D01*
D12*
X0243800Y0316500D02*
X0206500Y0316500D01*
X0243800Y0316500D02*
X0243800Y0346500D01*
X0206500Y0346500D01*
X0309200Y0346500D02*
X0309200Y0316500D01*
X0346500Y0316500D01*
X0346500Y0346500D02*
X0309200Y0346500D01*
X0456500Y0346500D02*
X0493800Y0346500D01*
X0493800Y0316500D01*
X0456500Y0316500D01*
X0096500Y0316500D02*
X0059200Y0316500D01*
X0059200Y0346500D01*
X0096500Y0346500D01*
D13*
X0049138Y0052681D02*
X0049138Y0050319D01*
X0053862Y0050319D02*
X0053862Y0052681D01*
X0095319Y0059138D02*
X0097681Y0059138D01*
X0097681Y0063862D02*
X0095319Y0063862D01*
X0095319Y0079138D02*
X0097681Y0079138D01*
X0097681Y0083862D02*
X0095319Y0083862D01*
X0052681Y0084138D02*
X0050319Y0084138D01*
X0050319Y0088862D02*
X0052681Y0088862D01*
X0053862Y0120319D02*
X0053862Y0122681D01*
X0049138Y0122681D02*
X0049138Y0120319D01*
X0050319Y0154138D02*
X0052681Y0154138D01*
X0052681Y0158862D02*
X0050319Y0158862D01*
X0095319Y0153862D02*
X0097681Y0153862D01*
X0097681Y0149138D02*
X0095319Y0149138D01*
X0095319Y0133862D02*
X0097681Y0133862D01*
X0097681Y0129138D02*
X0095319Y0129138D01*
X0053862Y0190319D02*
X0053862Y0192681D01*
X0049138Y0192681D02*
X0049138Y0190319D01*
X0050319Y0224138D02*
X0052681Y0224138D01*
X0052681Y0228862D02*
X0050319Y0228862D01*
X0049138Y0260319D02*
X0049138Y0262681D01*
X0053862Y0262681D02*
X0053862Y0260319D01*
X0095319Y0269138D02*
X0097681Y0269138D01*
X0097681Y0273862D02*
X0095319Y0273862D01*
X0095319Y0289138D02*
X0097681Y0289138D01*
X0097681Y0293862D02*
X0095319Y0293862D01*
X0052681Y0294138D02*
X0050319Y0294138D01*
X0050319Y0298862D02*
X0052681Y0298862D01*
X0095319Y0223862D02*
X0097681Y0223862D01*
X0097681Y0219138D02*
X0095319Y0219138D01*
X0095319Y0203862D02*
X0097681Y0203862D01*
X0097681Y0199138D02*
X0095319Y0199138D01*
X0199138Y0235319D02*
X0199138Y0237681D01*
X0203862Y0237681D02*
X0203862Y0235319D01*
X0230319Y0223862D02*
X0232681Y0223862D01*
X0232681Y0219138D02*
X0230319Y0219138D01*
X0230319Y0203862D02*
X0232681Y0203862D01*
X0232681Y0199138D02*
X0230319Y0199138D01*
X0263138Y0209819D02*
X0263138Y0212181D01*
X0267862Y0212181D02*
X0267862Y0209819D01*
X0309819Y0185862D02*
X0312181Y0185862D01*
X0312181Y0181138D02*
X0309819Y0181138D01*
X0270384Y0155336D02*
X0270384Y0153167D01*
X0269951Y0152733D01*
X0269083Y0152733D01*
X0268650Y0153167D01*
X0268650Y0155336D01*
X0267438Y0154468D02*
X0266570Y0155336D01*
X0266570Y0152733D01*
X0265703Y0152733D02*
X0267438Y0152733D01*
X0275138Y0143681D02*
X0275138Y0141319D01*
X0279862Y0141319D02*
X0279862Y0143681D01*
X0232681Y0149138D02*
X0230319Y0149138D01*
X0230319Y0153862D02*
X0232681Y0153862D01*
X0232681Y0133862D02*
X0230319Y0133862D01*
X0230319Y0129138D02*
X0232681Y0129138D01*
X0203862Y0117681D02*
X0203862Y0115319D01*
X0199138Y0115319D02*
X0199138Y0117681D01*
X0199138Y0097681D02*
X0199138Y0095319D01*
X0203862Y0095319D02*
X0203862Y0097681D01*
X0230319Y0083862D02*
X0232681Y0083862D01*
X0232681Y0079138D02*
X0230319Y0079138D01*
X0230319Y0063862D02*
X0232681Y0063862D01*
X0232681Y0059138D02*
X0230319Y0059138D01*
X0334138Y0095319D02*
X0334138Y0097681D01*
X0338862Y0097681D02*
X0338862Y0095319D01*
X0338862Y0115319D02*
X0338862Y0117681D01*
X0334138Y0117681D02*
X0334138Y0115319D01*
X0365319Y0083862D02*
X0367681Y0083862D01*
X0367681Y0079138D02*
X0365319Y0079138D01*
X0469138Y0095319D02*
X0469138Y0097681D01*
X0473862Y0097681D02*
X0473862Y0095319D01*
X0510319Y0114138D02*
X0512681Y0114138D01*
X0512681Y0118862D02*
X0510319Y0118862D01*
X0510319Y0159138D02*
X0512681Y0159138D01*
X0512681Y0163862D02*
X0510319Y0163862D01*
X0473862Y0165319D02*
X0473862Y0167681D01*
X0469138Y0167681D02*
X0469138Y0165319D01*
X0469138Y0185319D02*
X0469138Y0187681D01*
X0473862Y0187681D02*
X0473862Y0185319D01*
X0510319Y0204138D02*
X0512681Y0204138D01*
X0512681Y0208862D02*
X0510319Y0208862D01*
X0510319Y0249138D02*
X0512681Y0249138D01*
X0512681Y0253862D02*
X0510319Y0253862D01*
X0473862Y0255319D02*
X0473862Y0257681D01*
X0469138Y0257681D02*
X0469138Y0255319D01*
X0367681Y0269138D02*
X0365319Y0269138D01*
X0365319Y0273862D02*
X0367681Y0273862D01*
X0367681Y0289138D02*
X0365319Y0289138D01*
X0365319Y0293862D02*
X0367681Y0293862D01*
X0338862Y0257681D02*
X0338862Y0255319D01*
X0334138Y0255319D02*
X0334138Y0257681D01*
X0334138Y0237681D02*
X0334138Y0235319D01*
X0338862Y0235319D02*
X0338862Y0237681D01*
X0365319Y0223862D02*
X0367681Y0223862D01*
X0367681Y0219138D02*
X0365319Y0219138D01*
X0365319Y0203862D02*
X0367681Y0203862D01*
X0367681Y0199138D02*
X0365319Y0199138D01*
X0365319Y0153862D02*
X0367681Y0153862D01*
X0367681Y0149138D02*
X0365319Y0149138D01*
X0510319Y0073862D02*
X0512681Y0073862D01*
X0512681Y0069138D02*
X0510319Y0069138D01*
X0232681Y0269138D02*
X0230319Y0269138D01*
X0230319Y0273862D02*
X0232681Y0273862D01*
X0232681Y0289138D02*
X0230319Y0289138D01*
X0230319Y0293862D02*
X0232681Y0293862D01*
X0203862Y0257681D02*
X0203862Y0255319D01*
X0199138Y0255319D02*
X0199138Y0257681D01*
X0255319Y0344138D02*
X0257681Y0344138D01*
X0257681Y0348862D02*
X0255319Y0348862D01*
D14*
X0281050Y0142024D02*
X0280800Y0141774D01*
X0280800Y0141273D01*
X0281050Y0141023D01*
X0281050Y0140551D02*
X0280800Y0140301D01*
X0280800Y0139800D01*
X0281050Y0139550D01*
X0282051Y0139550D01*
X0282301Y0139800D01*
X0282301Y0140301D01*
X0282051Y0140551D01*
X0282051Y0141023D02*
X0282301Y0141273D01*
X0282301Y0141774D01*
X0282051Y0142024D01*
X0281801Y0142024D01*
X0281551Y0141774D01*
X0281300Y0142024D01*
X0281050Y0142024D01*
X0281551Y0141774D02*
X0281551Y0141524D01*
D15*
X0288311Y0163508D02*
X0264689Y0163508D01*
X0263508Y0164689D01*
X0263508Y0188311D01*
X0264689Y0189492D01*
X0288311Y0189492D01*
X0289492Y0188311D01*
X0289492Y0164689D01*
X0288311Y0163508D01*
X0286000Y0091500D02*
X0282000Y0091500D01*
X0281768Y0305988D02*
X0271232Y0305988D01*
X0268232Y0310988D02*
X0268232Y0312012D01*
X0271232Y0317012D02*
X0281768Y0317012D01*
X0284768Y0312012D02*
X0284768Y0310988D01*
X0057209Y0322445D02*
X0057209Y0340555D01*
X0055437Y0340555D01*
X0047563Y0340555D02*
X0045791Y0340555D01*
X0045791Y0322445D01*
X0047563Y0322445D01*
X0047563Y0327563D02*
X0055437Y0327563D01*
X0055437Y0322445D02*
X0057209Y0322445D01*
D16*
X0266264Y0167248D02*
X0266266Y0167304D01*
X0266272Y0167359D01*
X0266282Y0167413D01*
X0266295Y0167467D01*
X0266313Y0167520D01*
X0266334Y0167571D01*
X0266358Y0167621D01*
X0266386Y0167669D01*
X0266418Y0167715D01*
X0266452Y0167759D01*
X0266490Y0167800D01*
X0266530Y0167838D01*
X0266573Y0167873D01*
X0266618Y0167905D01*
X0266666Y0167934D01*
X0266715Y0167960D01*
X0266766Y0167982D01*
X0266818Y0168000D01*
X0266872Y0168014D01*
X0266927Y0168025D01*
X0266982Y0168032D01*
X0267037Y0168035D01*
X0267093Y0168034D01*
X0267148Y0168029D01*
X0267203Y0168020D01*
X0267257Y0168008D01*
X0267310Y0167991D01*
X0267362Y0167971D01*
X0267412Y0167947D01*
X0267460Y0167920D01*
X0267507Y0167890D01*
X0267551Y0167856D01*
X0267593Y0167819D01*
X0267631Y0167779D01*
X0267668Y0167737D01*
X0267701Y0167692D01*
X0267730Y0167646D01*
X0267757Y0167597D01*
X0267779Y0167546D01*
X0267799Y0167494D01*
X0267814Y0167440D01*
X0267826Y0167386D01*
X0267834Y0167331D01*
X0267838Y0167276D01*
X0267838Y0167220D01*
X0267834Y0167165D01*
X0267826Y0167110D01*
X0267814Y0167056D01*
X0267799Y0167002D01*
X0267779Y0166950D01*
X0267757Y0166899D01*
X0267730Y0166850D01*
X0267701Y0166804D01*
X0267668Y0166759D01*
X0267631Y0166717D01*
X0267593Y0166677D01*
X0267551Y0166640D01*
X0267507Y0166606D01*
X0267460Y0166576D01*
X0267412Y0166549D01*
X0267362Y0166525D01*
X0267310Y0166505D01*
X0267257Y0166488D01*
X0267203Y0166476D01*
X0267148Y0166467D01*
X0267093Y0166462D01*
X0267037Y0166461D01*
X0266982Y0166464D01*
X0266927Y0166471D01*
X0266872Y0166482D01*
X0266818Y0166496D01*
X0266766Y0166514D01*
X0266715Y0166536D01*
X0266666Y0166562D01*
X0266618Y0166591D01*
X0266573Y0166623D01*
X0266530Y0166658D01*
X0266490Y0166696D01*
X0266452Y0166737D01*
X0266418Y0166781D01*
X0266386Y0166827D01*
X0266358Y0166875D01*
X0266334Y0166925D01*
X0266313Y0166976D01*
X0266295Y0167029D01*
X0266282Y0167083D01*
X0266272Y0167137D01*
X0266266Y0167192D01*
X0266264Y0167248D01*
D17*
X0261008Y0048232D02*
X0261008Y0014768D01*
X0291992Y0014768D01*
X0291992Y0048232D01*
X0261008Y0048232D01*
D18*
X0273331Y0311500D02*
X0273333Y0311612D01*
X0273339Y0311725D01*
X0273349Y0311837D01*
X0273363Y0311948D01*
X0273381Y0312060D01*
X0273403Y0312170D01*
X0273428Y0312279D01*
X0273458Y0312388D01*
X0273491Y0312495D01*
X0273529Y0312601D01*
X0273570Y0312706D01*
X0273614Y0312809D01*
X0273662Y0312911D01*
X0273714Y0313011D01*
X0273770Y0313109D01*
X0273829Y0313205D01*
X0273891Y0313298D01*
X0273956Y0313390D01*
X0274025Y0313479D01*
X0274097Y0313566D01*
X0274172Y0313650D01*
X0274249Y0313731D01*
X0274330Y0313809D01*
X0274413Y0313885D01*
X0274499Y0313957D01*
X0274588Y0314027D01*
X0274678Y0314093D01*
X0274772Y0314156D01*
X0274867Y0314216D01*
X0274964Y0314272D01*
X0275064Y0314325D01*
X0275165Y0314374D01*
X0275268Y0314420D01*
X0275372Y0314462D01*
X0275478Y0314500D01*
X0275585Y0314534D01*
X0275693Y0314565D01*
X0275803Y0314591D01*
X0275913Y0314614D01*
X0276024Y0314633D01*
X0276135Y0314648D01*
X0276247Y0314659D01*
X0276359Y0314666D01*
X0276472Y0314669D01*
X0276584Y0314668D01*
X0276697Y0314663D01*
X0276809Y0314654D01*
X0276921Y0314641D01*
X0277032Y0314624D01*
X0277142Y0314603D01*
X0277252Y0314578D01*
X0277361Y0314550D01*
X0277469Y0314517D01*
X0277575Y0314481D01*
X0277680Y0314441D01*
X0277784Y0314397D01*
X0277886Y0314350D01*
X0277986Y0314299D01*
X0278084Y0314244D01*
X0278181Y0314186D01*
X0278275Y0314125D01*
X0278367Y0314060D01*
X0278457Y0313993D01*
X0278544Y0313922D01*
X0278629Y0313847D01*
X0278711Y0313770D01*
X0278790Y0313691D01*
X0278866Y0313608D01*
X0278940Y0313523D01*
X0279010Y0313435D01*
X0279077Y0313344D01*
X0279141Y0313252D01*
X0279201Y0313157D01*
X0279258Y0313060D01*
X0279312Y0312961D01*
X0279362Y0312860D01*
X0279409Y0312758D01*
X0279451Y0312654D01*
X0279491Y0312549D01*
X0279526Y0312442D01*
X0279557Y0312334D01*
X0279585Y0312225D01*
X0279609Y0312115D01*
X0279629Y0312004D01*
X0279645Y0311893D01*
X0279657Y0311781D01*
X0279665Y0311669D01*
X0279669Y0311556D01*
X0279669Y0311444D01*
X0279665Y0311331D01*
X0279657Y0311219D01*
X0279645Y0311107D01*
X0279629Y0310996D01*
X0279609Y0310885D01*
X0279585Y0310775D01*
X0279557Y0310666D01*
X0279526Y0310558D01*
X0279491Y0310451D01*
X0279451Y0310346D01*
X0279409Y0310242D01*
X0279362Y0310140D01*
X0279312Y0310039D01*
X0279258Y0309940D01*
X0279201Y0309843D01*
X0279141Y0309748D01*
X0279077Y0309656D01*
X0279010Y0309565D01*
X0278940Y0309477D01*
X0278866Y0309392D01*
X0278790Y0309309D01*
X0278711Y0309230D01*
X0278629Y0309153D01*
X0278544Y0309078D01*
X0278457Y0309007D01*
X0278367Y0308940D01*
X0278275Y0308875D01*
X0278181Y0308814D01*
X0278085Y0308756D01*
X0277986Y0308701D01*
X0277886Y0308650D01*
X0277784Y0308603D01*
X0277680Y0308559D01*
X0277575Y0308519D01*
X0277469Y0308483D01*
X0277361Y0308450D01*
X0277252Y0308422D01*
X0277142Y0308397D01*
X0277032Y0308376D01*
X0276921Y0308359D01*
X0276809Y0308346D01*
X0276697Y0308337D01*
X0276584Y0308332D01*
X0276472Y0308331D01*
X0276359Y0308334D01*
X0276247Y0308341D01*
X0276135Y0308352D01*
X0276024Y0308367D01*
X0275913Y0308386D01*
X0275803Y0308409D01*
X0275693Y0308435D01*
X0275585Y0308466D01*
X0275478Y0308500D01*
X0275372Y0308538D01*
X0275268Y0308580D01*
X0275165Y0308626D01*
X0275064Y0308675D01*
X0274964Y0308728D01*
X0274867Y0308784D01*
X0274772Y0308844D01*
X0274678Y0308907D01*
X0274588Y0308973D01*
X0274499Y0309043D01*
X0274413Y0309115D01*
X0274330Y0309191D01*
X0274249Y0309269D01*
X0274172Y0309350D01*
X0274097Y0309434D01*
X0274025Y0309521D01*
X0273956Y0309610D01*
X0273891Y0309702D01*
X0273829Y0309795D01*
X0273770Y0309891D01*
X0273714Y0309989D01*
X0273662Y0310089D01*
X0273614Y0310191D01*
X0273570Y0310294D01*
X0273529Y0310399D01*
X0273491Y0310505D01*
X0273458Y0310612D01*
X0273428Y0310721D01*
X0273403Y0310830D01*
X0273381Y0310940D01*
X0273363Y0311052D01*
X0273349Y0311163D01*
X0273339Y0311275D01*
X0273333Y0311388D01*
X0273331Y0311500D01*
M02*
