G75*
%MOIN*%
%OFA0B0*%
%FSLAX25Y25*%
%IPPOS*%
%LPD*%
%AMOC8*
5,1,8,0,0,1.08239X$1,22.5*
%
%ADD10R,0.04724X0.03150*%
%ADD11R,0.03150X0.04724*%
%ADD12R,0.05906X0.00984*%
%ADD13R,0.00984X0.05906*%
%ADD14R,0.05118X0.04724*%
%ADD15R,0.04921X0.11811*%
%ADD16R,0.05787X0.05000*%
%ADD17R,0.03543X0.03937*%
D10*
X0051500Y0047957D03*
X0051500Y0055043D03*
X0051500Y0117957D03*
X0051500Y0125043D03*
X0051500Y0187957D03*
X0051500Y0195043D03*
X0051500Y0257957D03*
X0051500Y0265043D03*
X0201500Y0260043D03*
X0201500Y0252957D03*
X0201500Y0240043D03*
X0201500Y0232957D03*
X0265500Y0214543D03*
X0265500Y0207457D03*
X0336500Y0232957D03*
X0336500Y0240043D03*
X0336500Y0252957D03*
X0336500Y0260043D03*
X0471500Y0260043D03*
X0471500Y0252957D03*
X0471500Y0190043D03*
X0471500Y0182957D03*
X0471500Y0170043D03*
X0471500Y0162957D03*
X0471500Y0100043D03*
X0471500Y0092957D03*
X0336500Y0092957D03*
X0336500Y0100043D03*
X0336500Y0112957D03*
X0336500Y0120043D03*
X0277500Y0138957D03*
X0277500Y0146043D03*
X0201500Y0120043D03*
X0201500Y0112957D03*
X0201500Y0100043D03*
X0201500Y0092957D03*
D11*
X0227957Y0081500D03*
X0235043Y0081500D03*
X0235043Y0061500D03*
X0227957Y0061500D03*
X0227957Y0131500D03*
X0235043Y0131500D03*
X0235043Y0151500D03*
X0227957Y0151500D03*
X0227957Y0201500D03*
X0235043Y0201500D03*
X0235043Y0221500D03*
X0227957Y0221500D03*
X0227957Y0271500D03*
X0235043Y0271500D03*
X0235043Y0291500D03*
X0227957Y0291500D03*
X0252957Y0346500D03*
X0260043Y0346500D03*
X0362957Y0291500D03*
X0370043Y0291500D03*
X0370043Y0271500D03*
X0362957Y0271500D03*
X0362957Y0221500D03*
X0370043Y0221500D03*
X0370043Y0201500D03*
X0362957Y0201500D03*
X0314543Y0183500D03*
X0307457Y0183500D03*
X0362957Y0151500D03*
X0370043Y0151500D03*
X0370043Y0081500D03*
X0362957Y0081500D03*
X0507957Y0071500D03*
X0515043Y0071500D03*
X0515043Y0116500D03*
X0507957Y0116500D03*
X0507957Y0161500D03*
X0515043Y0161500D03*
X0515043Y0206500D03*
X0507957Y0206500D03*
X0507957Y0251500D03*
X0515043Y0251500D03*
X0100043Y0271500D03*
X0092957Y0271500D03*
X0092957Y0291500D03*
X0100043Y0291500D03*
X0055043Y0296500D03*
X0047957Y0296500D03*
X0047957Y0226500D03*
X0055043Y0226500D03*
X0092957Y0221500D03*
X0100043Y0221500D03*
X0100043Y0201500D03*
X0092957Y0201500D03*
X0055043Y0156500D03*
X0047957Y0156500D03*
X0092957Y0151500D03*
X0100043Y0151500D03*
X0100043Y0131500D03*
X0092957Y0131500D03*
X0055043Y0086500D03*
X0047957Y0086500D03*
X0092957Y0081500D03*
X0100043Y0081500D03*
X0100043Y0061500D03*
X0092957Y0061500D03*
D12*
X0259571Y0165673D03*
X0259571Y0167642D03*
X0259571Y0169610D03*
X0259571Y0171579D03*
X0259571Y0173547D03*
X0259571Y0175516D03*
X0259571Y0177484D03*
X0259571Y0179453D03*
X0259571Y0181421D03*
X0259571Y0183390D03*
X0259571Y0185358D03*
X0259571Y0187327D03*
X0293429Y0187327D03*
X0293429Y0185358D03*
X0293429Y0183390D03*
X0293429Y0181421D03*
X0293429Y0179453D03*
X0293429Y0177484D03*
X0293429Y0175516D03*
X0293429Y0173547D03*
X0293429Y0171579D03*
X0293429Y0169610D03*
X0293429Y0167642D03*
X0293429Y0165673D03*
D13*
X0287327Y0159571D03*
X0285358Y0159571D03*
X0283390Y0159571D03*
X0281421Y0159571D03*
X0279453Y0159571D03*
X0277484Y0159571D03*
X0275516Y0159571D03*
X0273547Y0159571D03*
X0271579Y0159571D03*
X0269610Y0159571D03*
X0267642Y0159571D03*
X0265673Y0159571D03*
X0265673Y0193429D03*
X0267642Y0193429D03*
X0269610Y0193429D03*
X0271579Y0193429D03*
X0273547Y0193429D03*
X0275516Y0193429D03*
X0277484Y0193429D03*
X0279453Y0193429D03*
X0281421Y0193429D03*
X0283390Y0193429D03*
X0285358Y0193429D03*
X0287327Y0193429D03*
D14*
X0284000Y0095500D03*
X0284000Y0087500D03*
D15*
X0286500Y0059945D03*
X0276500Y0059945D03*
X0266500Y0059945D03*
D16*
X0051500Y0323035D03*
X0051500Y0339965D03*
D17*
X0268429Y0314650D03*
X0268429Y0308350D03*
X0284571Y0308350D03*
X0284571Y0314650D03*
M02*
