G75*
%MOIN*%
%OFA0B0*%
%FSLAX25Y25*%
%IPPOS*%
%LPD*%
%AMOC8*
5,1,8,0,0,1.08239X$1,22.5*
%
%ADD10C,0.00000*%
D10*
X0026500Y0001500D02*
X0526500Y0001500D01*
X0520000Y0026500D02*
X0520002Y0026661D01*
X0520008Y0026821D01*
X0520018Y0026982D01*
X0520032Y0027142D01*
X0520050Y0027302D01*
X0520071Y0027461D01*
X0520097Y0027620D01*
X0520127Y0027778D01*
X0520160Y0027935D01*
X0520198Y0028092D01*
X0520239Y0028247D01*
X0520284Y0028401D01*
X0520333Y0028554D01*
X0520386Y0028706D01*
X0520442Y0028857D01*
X0520503Y0029006D01*
X0520566Y0029154D01*
X0520634Y0029300D01*
X0520705Y0029444D01*
X0520779Y0029586D01*
X0520857Y0029727D01*
X0520939Y0029865D01*
X0521024Y0030002D01*
X0521112Y0030136D01*
X0521204Y0030268D01*
X0521299Y0030398D01*
X0521397Y0030526D01*
X0521498Y0030651D01*
X0521602Y0030773D01*
X0521709Y0030893D01*
X0521819Y0031010D01*
X0521932Y0031125D01*
X0522048Y0031236D01*
X0522167Y0031345D01*
X0522288Y0031450D01*
X0522412Y0031553D01*
X0522538Y0031653D01*
X0522666Y0031749D01*
X0522797Y0031842D01*
X0522931Y0031932D01*
X0523066Y0032019D01*
X0523204Y0032102D01*
X0523343Y0032182D01*
X0523485Y0032258D01*
X0523628Y0032331D01*
X0523773Y0032400D01*
X0523920Y0032466D01*
X0524068Y0032528D01*
X0524218Y0032586D01*
X0524369Y0032641D01*
X0524522Y0032692D01*
X0524676Y0032739D01*
X0524831Y0032782D01*
X0524987Y0032821D01*
X0525143Y0032857D01*
X0525301Y0032888D01*
X0525459Y0032916D01*
X0525618Y0032940D01*
X0525778Y0032960D01*
X0525938Y0032976D01*
X0526098Y0032988D01*
X0526259Y0032996D01*
X0526420Y0033000D01*
X0526580Y0033000D01*
X0526741Y0032996D01*
X0526902Y0032988D01*
X0527062Y0032976D01*
X0527222Y0032960D01*
X0527382Y0032940D01*
X0527541Y0032916D01*
X0527699Y0032888D01*
X0527857Y0032857D01*
X0528013Y0032821D01*
X0528169Y0032782D01*
X0528324Y0032739D01*
X0528478Y0032692D01*
X0528631Y0032641D01*
X0528782Y0032586D01*
X0528932Y0032528D01*
X0529080Y0032466D01*
X0529227Y0032400D01*
X0529372Y0032331D01*
X0529515Y0032258D01*
X0529657Y0032182D01*
X0529796Y0032102D01*
X0529934Y0032019D01*
X0530069Y0031932D01*
X0530203Y0031842D01*
X0530334Y0031749D01*
X0530462Y0031653D01*
X0530588Y0031553D01*
X0530712Y0031450D01*
X0530833Y0031345D01*
X0530952Y0031236D01*
X0531068Y0031125D01*
X0531181Y0031010D01*
X0531291Y0030893D01*
X0531398Y0030773D01*
X0531502Y0030651D01*
X0531603Y0030526D01*
X0531701Y0030398D01*
X0531796Y0030268D01*
X0531888Y0030136D01*
X0531976Y0030002D01*
X0532061Y0029865D01*
X0532143Y0029727D01*
X0532221Y0029586D01*
X0532295Y0029444D01*
X0532366Y0029300D01*
X0532434Y0029154D01*
X0532497Y0029006D01*
X0532558Y0028857D01*
X0532614Y0028706D01*
X0532667Y0028554D01*
X0532716Y0028401D01*
X0532761Y0028247D01*
X0532802Y0028092D01*
X0532840Y0027935D01*
X0532873Y0027778D01*
X0532903Y0027620D01*
X0532929Y0027461D01*
X0532950Y0027302D01*
X0532968Y0027142D01*
X0532982Y0026982D01*
X0532992Y0026821D01*
X0532998Y0026661D01*
X0533000Y0026500D01*
X0532998Y0026339D01*
X0532992Y0026179D01*
X0532982Y0026018D01*
X0532968Y0025858D01*
X0532950Y0025698D01*
X0532929Y0025539D01*
X0532903Y0025380D01*
X0532873Y0025222D01*
X0532840Y0025065D01*
X0532802Y0024908D01*
X0532761Y0024753D01*
X0532716Y0024599D01*
X0532667Y0024446D01*
X0532614Y0024294D01*
X0532558Y0024143D01*
X0532497Y0023994D01*
X0532434Y0023846D01*
X0532366Y0023700D01*
X0532295Y0023556D01*
X0532221Y0023414D01*
X0532143Y0023273D01*
X0532061Y0023135D01*
X0531976Y0022998D01*
X0531888Y0022864D01*
X0531796Y0022732D01*
X0531701Y0022602D01*
X0531603Y0022474D01*
X0531502Y0022349D01*
X0531398Y0022227D01*
X0531291Y0022107D01*
X0531181Y0021990D01*
X0531068Y0021875D01*
X0530952Y0021764D01*
X0530833Y0021655D01*
X0530712Y0021550D01*
X0530588Y0021447D01*
X0530462Y0021347D01*
X0530334Y0021251D01*
X0530203Y0021158D01*
X0530069Y0021068D01*
X0529934Y0020981D01*
X0529796Y0020898D01*
X0529657Y0020818D01*
X0529515Y0020742D01*
X0529372Y0020669D01*
X0529227Y0020600D01*
X0529080Y0020534D01*
X0528932Y0020472D01*
X0528782Y0020414D01*
X0528631Y0020359D01*
X0528478Y0020308D01*
X0528324Y0020261D01*
X0528169Y0020218D01*
X0528013Y0020179D01*
X0527857Y0020143D01*
X0527699Y0020112D01*
X0527541Y0020084D01*
X0527382Y0020060D01*
X0527222Y0020040D01*
X0527062Y0020024D01*
X0526902Y0020012D01*
X0526741Y0020004D01*
X0526580Y0020000D01*
X0526420Y0020000D01*
X0526259Y0020004D01*
X0526098Y0020012D01*
X0525938Y0020024D01*
X0525778Y0020040D01*
X0525618Y0020060D01*
X0525459Y0020084D01*
X0525301Y0020112D01*
X0525143Y0020143D01*
X0524987Y0020179D01*
X0524831Y0020218D01*
X0524676Y0020261D01*
X0524522Y0020308D01*
X0524369Y0020359D01*
X0524218Y0020414D01*
X0524068Y0020472D01*
X0523920Y0020534D01*
X0523773Y0020600D01*
X0523628Y0020669D01*
X0523485Y0020742D01*
X0523343Y0020818D01*
X0523204Y0020898D01*
X0523066Y0020981D01*
X0522931Y0021068D01*
X0522797Y0021158D01*
X0522666Y0021251D01*
X0522538Y0021347D01*
X0522412Y0021447D01*
X0522288Y0021550D01*
X0522167Y0021655D01*
X0522048Y0021764D01*
X0521932Y0021875D01*
X0521819Y0021990D01*
X0521709Y0022107D01*
X0521602Y0022227D01*
X0521498Y0022349D01*
X0521397Y0022474D01*
X0521299Y0022602D01*
X0521204Y0022732D01*
X0521112Y0022864D01*
X0521024Y0022998D01*
X0520939Y0023135D01*
X0520857Y0023273D01*
X0520779Y0023414D01*
X0520705Y0023556D01*
X0520634Y0023700D01*
X0520566Y0023846D01*
X0520503Y0023994D01*
X0520442Y0024143D01*
X0520386Y0024294D01*
X0520333Y0024446D01*
X0520284Y0024599D01*
X0520239Y0024753D01*
X0520198Y0024908D01*
X0520160Y0025065D01*
X0520127Y0025222D01*
X0520097Y0025380D01*
X0520071Y0025539D01*
X0520050Y0025698D01*
X0520032Y0025858D01*
X0520018Y0026018D01*
X0520008Y0026179D01*
X0520002Y0026339D01*
X0520000Y0026500D01*
X0526500Y0001500D02*
X0527104Y0001507D01*
X0527708Y0001529D01*
X0528311Y0001566D01*
X0528913Y0001617D01*
X0529513Y0001682D01*
X0530112Y0001762D01*
X0530709Y0001857D01*
X0531303Y0001966D01*
X0531895Y0002089D01*
X0532483Y0002226D01*
X0533068Y0002378D01*
X0533649Y0002544D01*
X0534225Y0002724D01*
X0534798Y0002917D01*
X0535365Y0003125D01*
X0535927Y0003346D01*
X0536484Y0003580D01*
X0537035Y0003828D01*
X0537580Y0004089D01*
X0538118Y0004364D01*
X0538650Y0004651D01*
X0539174Y0004951D01*
X0539691Y0005263D01*
X0540200Y0005588D01*
X0540702Y0005925D01*
X0541195Y0006275D01*
X0541679Y0006636D01*
X0542155Y0007008D01*
X0542621Y0007392D01*
X0543078Y0007787D01*
X0543525Y0008193D01*
X0543963Y0008610D01*
X0544390Y0009037D01*
X0544807Y0009475D01*
X0545213Y0009922D01*
X0545608Y0010379D01*
X0545992Y0010845D01*
X0546364Y0011321D01*
X0546725Y0011805D01*
X0547075Y0012298D01*
X0547412Y0012800D01*
X0547737Y0013309D01*
X0548049Y0013826D01*
X0548349Y0014350D01*
X0548636Y0014882D01*
X0548911Y0015420D01*
X0549172Y0015965D01*
X0549420Y0016516D01*
X0549654Y0017073D01*
X0549875Y0017635D01*
X0550083Y0018202D01*
X0550276Y0018775D01*
X0550456Y0019351D01*
X0550622Y0019932D01*
X0550774Y0020517D01*
X0550911Y0021105D01*
X0551034Y0021697D01*
X0551143Y0022291D01*
X0551238Y0022888D01*
X0551318Y0023487D01*
X0551383Y0024087D01*
X0551434Y0024689D01*
X0551471Y0025292D01*
X0551493Y0025896D01*
X0551500Y0026500D01*
X0551500Y0336500D01*
X0520000Y0336500D02*
X0520002Y0336661D01*
X0520008Y0336821D01*
X0520018Y0336982D01*
X0520032Y0337142D01*
X0520050Y0337302D01*
X0520071Y0337461D01*
X0520097Y0337620D01*
X0520127Y0337778D01*
X0520160Y0337935D01*
X0520198Y0338092D01*
X0520239Y0338247D01*
X0520284Y0338401D01*
X0520333Y0338554D01*
X0520386Y0338706D01*
X0520442Y0338857D01*
X0520503Y0339006D01*
X0520566Y0339154D01*
X0520634Y0339300D01*
X0520705Y0339444D01*
X0520779Y0339586D01*
X0520857Y0339727D01*
X0520939Y0339865D01*
X0521024Y0340002D01*
X0521112Y0340136D01*
X0521204Y0340268D01*
X0521299Y0340398D01*
X0521397Y0340526D01*
X0521498Y0340651D01*
X0521602Y0340773D01*
X0521709Y0340893D01*
X0521819Y0341010D01*
X0521932Y0341125D01*
X0522048Y0341236D01*
X0522167Y0341345D01*
X0522288Y0341450D01*
X0522412Y0341553D01*
X0522538Y0341653D01*
X0522666Y0341749D01*
X0522797Y0341842D01*
X0522931Y0341932D01*
X0523066Y0342019D01*
X0523204Y0342102D01*
X0523343Y0342182D01*
X0523485Y0342258D01*
X0523628Y0342331D01*
X0523773Y0342400D01*
X0523920Y0342466D01*
X0524068Y0342528D01*
X0524218Y0342586D01*
X0524369Y0342641D01*
X0524522Y0342692D01*
X0524676Y0342739D01*
X0524831Y0342782D01*
X0524987Y0342821D01*
X0525143Y0342857D01*
X0525301Y0342888D01*
X0525459Y0342916D01*
X0525618Y0342940D01*
X0525778Y0342960D01*
X0525938Y0342976D01*
X0526098Y0342988D01*
X0526259Y0342996D01*
X0526420Y0343000D01*
X0526580Y0343000D01*
X0526741Y0342996D01*
X0526902Y0342988D01*
X0527062Y0342976D01*
X0527222Y0342960D01*
X0527382Y0342940D01*
X0527541Y0342916D01*
X0527699Y0342888D01*
X0527857Y0342857D01*
X0528013Y0342821D01*
X0528169Y0342782D01*
X0528324Y0342739D01*
X0528478Y0342692D01*
X0528631Y0342641D01*
X0528782Y0342586D01*
X0528932Y0342528D01*
X0529080Y0342466D01*
X0529227Y0342400D01*
X0529372Y0342331D01*
X0529515Y0342258D01*
X0529657Y0342182D01*
X0529796Y0342102D01*
X0529934Y0342019D01*
X0530069Y0341932D01*
X0530203Y0341842D01*
X0530334Y0341749D01*
X0530462Y0341653D01*
X0530588Y0341553D01*
X0530712Y0341450D01*
X0530833Y0341345D01*
X0530952Y0341236D01*
X0531068Y0341125D01*
X0531181Y0341010D01*
X0531291Y0340893D01*
X0531398Y0340773D01*
X0531502Y0340651D01*
X0531603Y0340526D01*
X0531701Y0340398D01*
X0531796Y0340268D01*
X0531888Y0340136D01*
X0531976Y0340002D01*
X0532061Y0339865D01*
X0532143Y0339727D01*
X0532221Y0339586D01*
X0532295Y0339444D01*
X0532366Y0339300D01*
X0532434Y0339154D01*
X0532497Y0339006D01*
X0532558Y0338857D01*
X0532614Y0338706D01*
X0532667Y0338554D01*
X0532716Y0338401D01*
X0532761Y0338247D01*
X0532802Y0338092D01*
X0532840Y0337935D01*
X0532873Y0337778D01*
X0532903Y0337620D01*
X0532929Y0337461D01*
X0532950Y0337302D01*
X0532968Y0337142D01*
X0532982Y0336982D01*
X0532992Y0336821D01*
X0532998Y0336661D01*
X0533000Y0336500D01*
X0532998Y0336339D01*
X0532992Y0336179D01*
X0532982Y0336018D01*
X0532968Y0335858D01*
X0532950Y0335698D01*
X0532929Y0335539D01*
X0532903Y0335380D01*
X0532873Y0335222D01*
X0532840Y0335065D01*
X0532802Y0334908D01*
X0532761Y0334753D01*
X0532716Y0334599D01*
X0532667Y0334446D01*
X0532614Y0334294D01*
X0532558Y0334143D01*
X0532497Y0333994D01*
X0532434Y0333846D01*
X0532366Y0333700D01*
X0532295Y0333556D01*
X0532221Y0333414D01*
X0532143Y0333273D01*
X0532061Y0333135D01*
X0531976Y0332998D01*
X0531888Y0332864D01*
X0531796Y0332732D01*
X0531701Y0332602D01*
X0531603Y0332474D01*
X0531502Y0332349D01*
X0531398Y0332227D01*
X0531291Y0332107D01*
X0531181Y0331990D01*
X0531068Y0331875D01*
X0530952Y0331764D01*
X0530833Y0331655D01*
X0530712Y0331550D01*
X0530588Y0331447D01*
X0530462Y0331347D01*
X0530334Y0331251D01*
X0530203Y0331158D01*
X0530069Y0331068D01*
X0529934Y0330981D01*
X0529796Y0330898D01*
X0529657Y0330818D01*
X0529515Y0330742D01*
X0529372Y0330669D01*
X0529227Y0330600D01*
X0529080Y0330534D01*
X0528932Y0330472D01*
X0528782Y0330414D01*
X0528631Y0330359D01*
X0528478Y0330308D01*
X0528324Y0330261D01*
X0528169Y0330218D01*
X0528013Y0330179D01*
X0527857Y0330143D01*
X0527699Y0330112D01*
X0527541Y0330084D01*
X0527382Y0330060D01*
X0527222Y0330040D01*
X0527062Y0330024D01*
X0526902Y0330012D01*
X0526741Y0330004D01*
X0526580Y0330000D01*
X0526420Y0330000D01*
X0526259Y0330004D01*
X0526098Y0330012D01*
X0525938Y0330024D01*
X0525778Y0330040D01*
X0525618Y0330060D01*
X0525459Y0330084D01*
X0525301Y0330112D01*
X0525143Y0330143D01*
X0524987Y0330179D01*
X0524831Y0330218D01*
X0524676Y0330261D01*
X0524522Y0330308D01*
X0524369Y0330359D01*
X0524218Y0330414D01*
X0524068Y0330472D01*
X0523920Y0330534D01*
X0523773Y0330600D01*
X0523628Y0330669D01*
X0523485Y0330742D01*
X0523343Y0330818D01*
X0523204Y0330898D01*
X0523066Y0330981D01*
X0522931Y0331068D01*
X0522797Y0331158D01*
X0522666Y0331251D01*
X0522538Y0331347D01*
X0522412Y0331447D01*
X0522288Y0331550D01*
X0522167Y0331655D01*
X0522048Y0331764D01*
X0521932Y0331875D01*
X0521819Y0331990D01*
X0521709Y0332107D01*
X0521602Y0332227D01*
X0521498Y0332349D01*
X0521397Y0332474D01*
X0521299Y0332602D01*
X0521204Y0332732D01*
X0521112Y0332864D01*
X0521024Y0332998D01*
X0520939Y0333135D01*
X0520857Y0333273D01*
X0520779Y0333414D01*
X0520705Y0333556D01*
X0520634Y0333700D01*
X0520566Y0333846D01*
X0520503Y0333994D01*
X0520442Y0334143D01*
X0520386Y0334294D01*
X0520333Y0334446D01*
X0520284Y0334599D01*
X0520239Y0334753D01*
X0520198Y0334908D01*
X0520160Y0335065D01*
X0520127Y0335222D01*
X0520097Y0335380D01*
X0520071Y0335539D01*
X0520050Y0335698D01*
X0520032Y0335858D01*
X0520018Y0336018D01*
X0520008Y0336179D01*
X0520002Y0336339D01*
X0520000Y0336500D01*
X0526500Y0361500D02*
X0527104Y0361493D01*
X0527708Y0361471D01*
X0528311Y0361434D01*
X0528913Y0361383D01*
X0529513Y0361318D01*
X0530112Y0361238D01*
X0530709Y0361143D01*
X0531303Y0361034D01*
X0531895Y0360911D01*
X0532483Y0360774D01*
X0533068Y0360622D01*
X0533649Y0360456D01*
X0534225Y0360276D01*
X0534798Y0360083D01*
X0535365Y0359875D01*
X0535927Y0359654D01*
X0536484Y0359420D01*
X0537035Y0359172D01*
X0537580Y0358911D01*
X0538118Y0358636D01*
X0538650Y0358349D01*
X0539174Y0358049D01*
X0539691Y0357737D01*
X0540200Y0357412D01*
X0540702Y0357075D01*
X0541195Y0356725D01*
X0541679Y0356364D01*
X0542155Y0355992D01*
X0542621Y0355608D01*
X0543078Y0355213D01*
X0543525Y0354807D01*
X0543963Y0354390D01*
X0544390Y0353963D01*
X0544807Y0353525D01*
X0545213Y0353078D01*
X0545608Y0352621D01*
X0545992Y0352155D01*
X0546364Y0351679D01*
X0546725Y0351195D01*
X0547075Y0350702D01*
X0547412Y0350200D01*
X0547737Y0349691D01*
X0548049Y0349174D01*
X0548349Y0348650D01*
X0548636Y0348118D01*
X0548911Y0347580D01*
X0549172Y0347035D01*
X0549420Y0346484D01*
X0549654Y0345927D01*
X0549875Y0345365D01*
X0550083Y0344798D01*
X0550276Y0344225D01*
X0550456Y0343649D01*
X0550622Y0343068D01*
X0550774Y0342483D01*
X0550911Y0341895D01*
X0551034Y0341303D01*
X0551143Y0340709D01*
X0551238Y0340112D01*
X0551318Y0339513D01*
X0551383Y0338913D01*
X0551434Y0338311D01*
X0551471Y0337708D01*
X0551493Y0337104D01*
X0551500Y0336500D01*
X0526500Y0361500D02*
X0026500Y0361500D01*
X0020000Y0336500D02*
X0020002Y0336661D01*
X0020008Y0336821D01*
X0020018Y0336982D01*
X0020032Y0337142D01*
X0020050Y0337302D01*
X0020071Y0337461D01*
X0020097Y0337620D01*
X0020127Y0337778D01*
X0020160Y0337935D01*
X0020198Y0338092D01*
X0020239Y0338247D01*
X0020284Y0338401D01*
X0020333Y0338554D01*
X0020386Y0338706D01*
X0020442Y0338857D01*
X0020503Y0339006D01*
X0020566Y0339154D01*
X0020634Y0339300D01*
X0020705Y0339444D01*
X0020779Y0339586D01*
X0020857Y0339727D01*
X0020939Y0339865D01*
X0021024Y0340002D01*
X0021112Y0340136D01*
X0021204Y0340268D01*
X0021299Y0340398D01*
X0021397Y0340526D01*
X0021498Y0340651D01*
X0021602Y0340773D01*
X0021709Y0340893D01*
X0021819Y0341010D01*
X0021932Y0341125D01*
X0022048Y0341236D01*
X0022167Y0341345D01*
X0022288Y0341450D01*
X0022412Y0341553D01*
X0022538Y0341653D01*
X0022666Y0341749D01*
X0022797Y0341842D01*
X0022931Y0341932D01*
X0023066Y0342019D01*
X0023204Y0342102D01*
X0023343Y0342182D01*
X0023485Y0342258D01*
X0023628Y0342331D01*
X0023773Y0342400D01*
X0023920Y0342466D01*
X0024068Y0342528D01*
X0024218Y0342586D01*
X0024369Y0342641D01*
X0024522Y0342692D01*
X0024676Y0342739D01*
X0024831Y0342782D01*
X0024987Y0342821D01*
X0025143Y0342857D01*
X0025301Y0342888D01*
X0025459Y0342916D01*
X0025618Y0342940D01*
X0025778Y0342960D01*
X0025938Y0342976D01*
X0026098Y0342988D01*
X0026259Y0342996D01*
X0026420Y0343000D01*
X0026580Y0343000D01*
X0026741Y0342996D01*
X0026902Y0342988D01*
X0027062Y0342976D01*
X0027222Y0342960D01*
X0027382Y0342940D01*
X0027541Y0342916D01*
X0027699Y0342888D01*
X0027857Y0342857D01*
X0028013Y0342821D01*
X0028169Y0342782D01*
X0028324Y0342739D01*
X0028478Y0342692D01*
X0028631Y0342641D01*
X0028782Y0342586D01*
X0028932Y0342528D01*
X0029080Y0342466D01*
X0029227Y0342400D01*
X0029372Y0342331D01*
X0029515Y0342258D01*
X0029657Y0342182D01*
X0029796Y0342102D01*
X0029934Y0342019D01*
X0030069Y0341932D01*
X0030203Y0341842D01*
X0030334Y0341749D01*
X0030462Y0341653D01*
X0030588Y0341553D01*
X0030712Y0341450D01*
X0030833Y0341345D01*
X0030952Y0341236D01*
X0031068Y0341125D01*
X0031181Y0341010D01*
X0031291Y0340893D01*
X0031398Y0340773D01*
X0031502Y0340651D01*
X0031603Y0340526D01*
X0031701Y0340398D01*
X0031796Y0340268D01*
X0031888Y0340136D01*
X0031976Y0340002D01*
X0032061Y0339865D01*
X0032143Y0339727D01*
X0032221Y0339586D01*
X0032295Y0339444D01*
X0032366Y0339300D01*
X0032434Y0339154D01*
X0032497Y0339006D01*
X0032558Y0338857D01*
X0032614Y0338706D01*
X0032667Y0338554D01*
X0032716Y0338401D01*
X0032761Y0338247D01*
X0032802Y0338092D01*
X0032840Y0337935D01*
X0032873Y0337778D01*
X0032903Y0337620D01*
X0032929Y0337461D01*
X0032950Y0337302D01*
X0032968Y0337142D01*
X0032982Y0336982D01*
X0032992Y0336821D01*
X0032998Y0336661D01*
X0033000Y0336500D01*
X0032998Y0336339D01*
X0032992Y0336179D01*
X0032982Y0336018D01*
X0032968Y0335858D01*
X0032950Y0335698D01*
X0032929Y0335539D01*
X0032903Y0335380D01*
X0032873Y0335222D01*
X0032840Y0335065D01*
X0032802Y0334908D01*
X0032761Y0334753D01*
X0032716Y0334599D01*
X0032667Y0334446D01*
X0032614Y0334294D01*
X0032558Y0334143D01*
X0032497Y0333994D01*
X0032434Y0333846D01*
X0032366Y0333700D01*
X0032295Y0333556D01*
X0032221Y0333414D01*
X0032143Y0333273D01*
X0032061Y0333135D01*
X0031976Y0332998D01*
X0031888Y0332864D01*
X0031796Y0332732D01*
X0031701Y0332602D01*
X0031603Y0332474D01*
X0031502Y0332349D01*
X0031398Y0332227D01*
X0031291Y0332107D01*
X0031181Y0331990D01*
X0031068Y0331875D01*
X0030952Y0331764D01*
X0030833Y0331655D01*
X0030712Y0331550D01*
X0030588Y0331447D01*
X0030462Y0331347D01*
X0030334Y0331251D01*
X0030203Y0331158D01*
X0030069Y0331068D01*
X0029934Y0330981D01*
X0029796Y0330898D01*
X0029657Y0330818D01*
X0029515Y0330742D01*
X0029372Y0330669D01*
X0029227Y0330600D01*
X0029080Y0330534D01*
X0028932Y0330472D01*
X0028782Y0330414D01*
X0028631Y0330359D01*
X0028478Y0330308D01*
X0028324Y0330261D01*
X0028169Y0330218D01*
X0028013Y0330179D01*
X0027857Y0330143D01*
X0027699Y0330112D01*
X0027541Y0330084D01*
X0027382Y0330060D01*
X0027222Y0330040D01*
X0027062Y0330024D01*
X0026902Y0330012D01*
X0026741Y0330004D01*
X0026580Y0330000D01*
X0026420Y0330000D01*
X0026259Y0330004D01*
X0026098Y0330012D01*
X0025938Y0330024D01*
X0025778Y0330040D01*
X0025618Y0330060D01*
X0025459Y0330084D01*
X0025301Y0330112D01*
X0025143Y0330143D01*
X0024987Y0330179D01*
X0024831Y0330218D01*
X0024676Y0330261D01*
X0024522Y0330308D01*
X0024369Y0330359D01*
X0024218Y0330414D01*
X0024068Y0330472D01*
X0023920Y0330534D01*
X0023773Y0330600D01*
X0023628Y0330669D01*
X0023485Y0330742D01*
X0023343Y0330818D01*
X0023204Y0330898D01*
X0023066Y0330981D01*
X0022931Y0331068D01*
X0022797Y0331158D01*
X0022666Y0331251D01*
X0022538Y0331347D01*
X0022412Y0331447D01*
X0022288Y0331550D01*
X0022167Y0331655D01*
X0022048Y0331764D01*
X0021932Y0331875D01*
X0021819Y0331990D01*
X0021709Y0332107D01*
X0021602Y0332227D01*
X0021498Y0332349D01*
X0021397Y0332474D01*
X0021299Y0332602D01*
X0021204Y0332732D01*
X0021112Y0332864D01*
X0021024Y0332998D01*
X0020939Y0333135D01*
X0020857Y0333273D01*
X0020779Y0333414D01*
X0020705Y0333556D01*
X0020634Y0333700D01*
X0020566Y0333846D01*
X0020503Y0333994D01*
X0020442Y0334143D01*
X0020386Y0334294D01*
X0020333Y0334446D01*
X0020284Y0334599D01*
X0020239Y0334753D01*
X0020198Y0334908D01*
X0020160Y0335065D01*
X0020127Y0335222D01*
X0020097Y0335380D01*
X0020071Y0335539D01*
X0020050Y0335698D01*
X0020032Y0335858D01*
X0020018Y0336018D01*
X0020008Y0336179D01*
X0020002Y0336339D01*
X0020000Y0336500D01*
X0001500Y0336500D02*
X0001507Y0337104D01*
X0001529Y0337708D01*
X0001566Y0338311D01*
X0001617Y0338913D01*
X0001682Y0339513D01*
X0001762Y0340112D01*
X0001857Y0340709D01*
X0001966Y0341303D01*
X0002089Y0341895D01*
X0002226Y0342483D01*
X0002378Y0343068D01*
X0002544Y0343649D01*
X0002724Y0344225D01*
X0002917Y0344798D01*
X0003125Y0345365D01*
X0003346Y0345927D01*
X0003580Y0346484D01*
X0003828Y0347035D01*
X0004089Y0347580D01*
X0004364Y0348118D01*
X0004651Y0348650D01*
X0004951Y0349174D01*
X0005263Y0349691D01*
X0005588Y0350200D01*
X0005925Y0350702D01*
X0006275Y0351195D01*
X0006636Y0351679D01*
X0007008Y0352155D01*
X0007392Y0352621D01*
X0007787Y0353078D01*
X0008193Y0353525D01*
X0008610Y0353963D01*
X0009037Y0354390D01*
X0009475Y0354807D01*
X0009922Y0355213D01*
X0010379Y0355608D01*
X0010845Y0355992D01*
X0011321Y0356364D01*
X0011805Y0356725D01*
X0012298Y0357075D01*
X0012800Y0357412D01*
X0013309Y0357737D01*
X0013826Y0358049D01*
X0014350Y0358349D01*
X0014882Y0358636D01*
X0015420Y0358911D01*
X0015965Y0359172D01*
X0016516Y0359420D01*
X0017073Y0359654D01*
X0017635Y0359875D01*
X0018202Y0360083D01*
X0018775Y0360276D01*
X0019351Y0360456D01*
X0019932Y0360622D01*
X0020517Y0360774D01*
X0021105Y0360911D01*
X0021697Y0361034D01*
X0022291Y0361143D01*
X0022888Y0361238D01*
X0023487Y0361318D01*
X0024087Y0361383D01*
X0024689Y0361434D01*
X0025292Y0361471D01*
X0025896Y0361493D01*
X0026500Y0361500D01*
X0001500Y0336500D02*
X0001500Y0026500D01*
X0020000Y0026500D02*
X0020002Y0026661D01*
X0020008Y0026821D01*
X0020018Y0026982D01*
X0020032Y0027142D01*
X0020050Y0027302D01*
X0020071Y0027461D01*
X0020097Y0027620D01*
X0020127Y0027778D01*
X0020160Y0027935D01*
X0020198Y0028092D01*
X0020239Y0028247D01*
X0020284Y0028401D01*
X0020333Y0028554D01*
X0020386Y0028706D01*
X0020442Y0028857D01*
X0020503Y0029006D01*
X0020566Y0029154D01*
X0020634Y0029300D01*
X0020705Y0029444D01*
X0020779Y0029586D01*
X0020857Y0029727D01*
X0020939Y0029865D01*
X0021024Y0030002D01*
X0021112Y0030136D01*
X0021204Y0030268D01*
X0021299Y0030398D01*
X0021397Y0030526D01*
X0021498Y0030651D01*
X0021602Y0030773D01*
X0021709Y0030893D01*
X0021819Y0031010D01*
X0021932Y0031125D01*
X0022048Y0031236D01*
X0022167Y0031345D01*
X0022288Y0031450D01*
X0022412Y0031553D01*
X0022538Y0031653D01*
X0022666Y0031749D01*
X0022797Y0031842D01*
X0022931Y0031932D01*
X0023066Y0032019D01*
X0023204Y0032102D01*
X0023343Y0032182D01*
X0023485Y0032258D01*
X0023628Y0032331D01*
X0023773Y0032400D01*
X0023920Y0032466D01*
X0024068Y0032528D01*
X0024218Y0032586D01*
X0024369Y0032641D01*
X0024522Y0032692D01*
X0024676Y0032739D01*
X0024831Y0032782D01*
X0024987Y0032821D01*
X0025143Y0032857D01*
X0025301Y0032888D01*
X0025459Y0032916D01*
X0025618Y0032940D01*
X0025778Y0032960D01*
X0025938Y0032976D01*
X0026098Y0032988D01*
X0026259Y0032996D01*
X0026420Y0033000D01*
X0026580Y0033000D01*
X0026741Y0032996D01*
X0026902Y0032988D01*
X0027062Y0032976D01*
X0027222Y0032960D01*
X0027382Y0032940D01*
X0027541Y0032916D01*
X0027699Y0032888D01*
X0027857Y0032857D01*
X0028013Y0032821D01*
X0028169Y0032782D01*
X0028324Y0032739D01*
X0028478Y0032692D01*
X0028631Y0032641D01*
X0028782Y0032586D01*
X0028932Y0032528D01*
X0029080Y0032466D01*
X0029227Y0032400D01*
X0029372Y0032331D01*
X0029515Y0032258D01*
X0029657Y0032182D01*
X0029796Y0032102D01*
X0029934Y0032019D01*
X0030069Y0031932D01*
X0030203Y0031842D01*
X0030334Y0031749D01*
X0030462Y0031653D01*
X0030588Y0031553D01*
X0030712Y0031450D01*
X0030833Y0031345D01*
X0030952Y0031236D01*
X0031068Y0031125D01*
X0031181Y0031010D01*
X0031291Y0030893D01*
X0031398Y0030773D01*
X0031502Y0030651D01*
X0031603Y0030526D01*
X0031701Y0030398D01*
X0031796Y0030268D01*
X0031888Y0030136D01*
X0031976Y0030002D01*
X0032061Y0029865D01*
X0032143Y0029727D01*
X0032221Y0029586D01*
X0032295Y0029444D01*
X0032366Y0029300D01*
X0032434Y0029154D01*
X0032497Y0029006D01*
X0032558Y0028857D01*
X0032614Y0028706D01*
X0032667Y0028554D01*
X0032716Y0028401D01*
X0032761Y0028247D01*
X0032802Y0028092D01*
X0032840Y0027935D01*
X0032873Y0027778D01*
X0032903Y0027620D01*
X0032929Y0027461D01*
X0032950Y0027302D01*
X0032968Y0027142D01*
X0032982Y0026982D01*
X0032992Y0026821D01*
X0032998Y0026661D01*
X0033000Y0026500D01*
X0032998Y0026339D01*
X0032992Y0026179D01*
X0032982Y0026018D01*
X0032968Y0025858D01*
X0032950Y0025698D01*
X0032929Y0025539D01*
X0032903Y0025380D01*
X0032873Y0025222D01*
X0032840Y0025065D01*
X0032802Y0024908D01*
X0032761Y0024753D01*
X0032716Y0024599D01*
X0032667Y0024446D01*
X0032614Y0024294D01*
X0032558Y0024143D01*
X0032497Y0023994D01*
X0032434Y0023846D01*
X0032366Y0023700D01*
X0032295Y0023556D01*
X0032221Y0023414D01*
X0032143Y0023273D01*
X0032061Y0023135D01*
X0031976Y0022998D01*
X0031888Y0022864D01*
X0031796Y0022732D01*
X0031701Y0022602D01*
X0031603Y0022474D01*
X0031502Y0022349D01*
X0031398Y0022227D01*
X0031291Y0022107D01*
X0031181Y0021990D01*
X0031068Y0021875D01*
X0030952Y0021764D01*
X0030833Y0021655D01*
X0030712Y0021550D01*
X0030588Y0021447D01*
X0030462Y0021347D01*
X0030334Y0021251D01*
X0030203Y0021158D01*
X0030069Y0021068D01*
X0029934Y0020981D01*
X0029796Y0020898D01*
X0029657Y0020818D01*
X0029515Y0020742D01*
X0029372Y0020669D01*
X0029227Y0020600D01*
X0029080Y0020534D01*
X0028932Y0020472D01*
X0028782Y0020414D01*
X0028631Y0020359D01*
X0028478Y0020308D01*
X0028324Y0020261D01*
X0028169Y0020218D01*
X0028013Y0020179D01*
X0027857Y0020143D01*
X0027699Y0020112D01*
X0027541Y0020084D01*
X0027382Y0020060D01*
X0027222Y0020040D01*
X0027062Y0020024D01*
X0026902Y0020012D01*
X0026741Y0020004D01*
X0026580Y0020000D01*
X0026420Y0020000D01*
X0026259Y0020004D01*
X0026098Y0020012D01*
X0025938Y0020024D01*
X0025778Y0020040D01*
X0025618Y0020060D01*
X0025459Y0020084D01*
X0025301Y0020112D01*
X0025143Y0020143D01*
X0024987Y0020179D01*
X0024831Y0020218D01*
X0024676Y0020261D01*
X0024522Y0020308D01*
X0024369Y0020359D01*
X0024218Y0020414D01*
X0024068Y0020472D01*
X0023920Y0020534D01*
X0023773Y0020600D01*
X0023628Y0020669D01*
X0023485Y0020742D01*
X0023343Y0020818D01*
X0023204Y0020898D01*
X0023066Y0020981D01*
X0022931Y0021068D01*
X0022797Y0021158D01*
X0022666Y0021251D01*
X0022538Y0021347D01*
X0022412Y0021447D01*
X0022288Y0021550D01*
X0022167Y0021655D01*
X0022048Y0021764D01*
X0021932Y0021875D01*
X0021819Y0021990D01*
X0021709Y0022107D01*
X0021602Y0022227D01*
X0021498Y0022349D01*
X0021397Y0022474D01*
X0021299Y0022602D01*
X0021204Y0022732D01*
X0021112Y0022864D01*
X0021024Y0022998D01*
X0020939Y0023135D01*
X0020857Y0023273D01*
X0020779Y0023414D01*
X0020705Y0023556D01*
X0020634Y0023700D01*
X0020566Y0023846D01*
X0020503Y0023994D01*
X0020442Y0024143D01*
X0020386Y0024294D01*
X0020333Y0024446D01*
X0020284Y0024599D01*
X0020239Y0024753D01*
X0020198Y0024908D01*
X0020160Y0025065D01*
X0020127Y0025222D01*
X0020097Y0025380D01*
X0020071Y0025539D01*
X0020050Y0025698D01*
X0020032Y0025858D01*
X0020018Y0026018D01*
X0020008Y0026179D01*
X0020002Y0026339D01*
X0020000Y0026500D01*
X0001500Y0026500D02*
X0001507Y0025896D01*
X0001529Y0025292D01*
X0001566Y0024689D01*
X0001617Y0024087D01*
X0001682Y0023487D01*
X0001762Y0022888D01*
X0001857Y0022291D01*
X0001966Y0021697D01*
X0002089Y0021105D01*
X0002226Y0020517D01*
X0002378Y0019932D01*
X0002544Y0019351D01*
X0002724Y0018775D01*
X0002917Y0018202D01*
X0003125Y0017635D01*
X0003346Y0017073D01*
X0003580Y0016516D01*
X0003828Y0015965D01*
X0004089Y0015420D01*
X0004364Y0014882D01*
X0004651Y0014350D01*
X0004951Y0013826D01*
X0005263Y0013309D01*
X0005588Y0012800D01*
X0005925Y0012298D01*
X0006275Y0011805D01*
X0006636Y0011321D01*
X0007008Y0010845D01*
X0007392Y0010379D01*
X0007787Y0009922D01*
X0008193Y0009475D01*
X0008610Y0009037D01*
X0009037Y0008610D01*
X0009475Y0008193D01*
X0009922Y0007787D01*
X0010379Y0007392D01*
X0010845Y0007008D01*
X0011321Y0006636D01*
X0011805Y0006275D01*
X0012298Y0005925D01*
X0012800Y0005588D01*
X0013309Y0005263D01*
X0013826Y0004951D01*
X0014350Y0004651D01*
X0014882Y0004364D01*
X0015420Y0004089D01*
X0015965Y0003828D01*
X0016516Y0003580D01*
X0017073Y0003346D01*
X0017635Y0003125D01*
X0018202Y0002917D01*
X0018775Y0002724D01*
X0019351Y0002544D01*
X0019932Y0002378D01*
X0020517Y0002226D01*
X0021105Y0002089D01*
X0021697Y0001966D01*
X0022291Y0001857D01*
X0022888Y0001762D01*
X0023487Y0001682D01*
X0024087Y0001617D01*
X0024689Y0001566D01*
X0025292Y0001529D01*
X0025896Y0001507D01*
X0026500Y0001500D01*
M02*
