G75*
%MOIN*%
%OFA0B0*%
%FSLAX25Y25*%
%IPPOS*%
%LPD*%
%AMOC8*
5,1,8,0,0,1.08239X$1,22.5*
%
%ADD10C,0.08000*%
%ADD11C,0.13800*%
%ADD12C,0.03500*%
%ADD13R,0.05524X0.03950*%
%ADD14R,0.03950X0.05524*%
%ADD15OC8,0.08400*%
%ADD16R,0.06706X0.01784*%
%ADD17R,0.01784X0.06706*%
%ADD18C,0.06800*%
%ADD19C,0.08200*%
%ADD20C,0.00500*%
%ADD21R,0.05918X0.05524*%
%ADD22R,0.05721X0.12611*%
%ADD23C,0.07800*%
%ADD24R,0.06587X0.05800*%
%ADD25R,0.04343X0.04737*%
D10*
X0066500Y0331500D02*
X0096500Y0331500D01*
X0206500Y0331500D02*
X0236500Y0331500D01*
X0316500Y0331500D02*
X0346500Y0331500D01*
X0456500Y0331500D02*
X0486500Y0331500D01*
D11*
X0026500Y0026500D03*
X0026500Y0336500D03*
X0526500Y0336500D03*
X0526500Y0026500D03*
D12*
X0484919Y0331500D02*
X0484921Y0331579D01*
X0484927Y0331659D01*
X0484937Y0331738D01*
X0484951Y0331816D01*
X0484969Y0331893D01*
X0484990Y0331970D01*
X0485016Y0332045D01*
X0485045Y0332119D01*
X0485078Y0332191D01*
X0485115Y0332262D01*
X0485155Y0332330D01*
X0485198Y0332397D01*
X0485245Y0332461D01*
X0485295Y0332523D01*
X0485348Y0332582D01*
X0485403Y0332639D01*
X0485462Y0332692D01*
X0485523Y0332743D01*
X0485587Y0332791D01*
X0485653Y0332835D01*
X0485721Y0332876D01*
X0485791Y0332913D01*
X0485863Y0332947D01*
X0485937Y0332977D01*
X0486011Y0333004D01*
X0486088Y0333026D01*
X0486165Y0333045D01*
X0486243Y0333060D01*
X0486322Y0333071D01*
X0486401Y0333078D01*
X0486480Y0333081D01*
X0486560Y0333080D01*
X0486639Y0333075D01*
X0486718Y0333066D01*
X0486796Y0333053D01*
X0486874Y0333036D01*
X0486951Y0333015D01*
X0487026Y0332991D01*
X0487100Y0332963D01*
X0487173Y0332931D01*
X0487244Y0332895D01*
X0487313Y0332856D01*
X0487380Y0332813D01*
X0487445Y0332767D01*
X0487508Y0332718D01*
X0487568Y0332666D01*
X0487625Y0332611D01*
X0487679Y0332553D01*
X0487731Y0332492D01*
X0487779Y0332429D01*
X0487824Y0332364D01*
X0487866Y0332296D01*
X0487904Y0332227D01*
X0487939Y0332155D01*
X0487970Y0332082D01*
X0487997Y0332007D01*
X0488021Y0331932D01*
X0488041Y0331855D01*
X0488057Y0331777D01*
X0488069Y0331698D01*
X0488077Y0331619D01*
X0488081Y0331540D01*
X0488081Y0331460D01*
X0488077Y0331381D01*
X0488069Y0331302D01*
X0488057Y0331223D01*
X0488041Y0331145D01*
X0488021Y0331068D01*
X0487997Y0330993D01*
X0487970Y0330918D01*
X0487939Y0330845D01*
X0487904Y0330773D01*
X0487866Y0330704D01*
X0487824Y0330636D01*
X0487779Y0330571D01*
X0487731Y0330508D01*
X0487679Y0330447D01*
X0487625Y0330389D01*
X0487568Y0330334D01*
X0487508Y0330282D01*
X0487445Y0330233D01*
X0487380Y0330187D01*
X0487313Y0330144D01*
X0487244Y0330105D01*
X0487173Y0330069D01*
X0487100Y0330037D01*
X0487026Y0330009D01*
X0486951Y0329985D01*
X0486874Y0329964D01*
X0486796Y0329947D01*
X0486718Y0329934D01*
X0486639Y0329925D01*
X0486560Y0329920D01*
X0486480Y0329919D01*
X0486401Y0329922D01*
X0486322Y0329929D01*
X0486243Y0329940D01*
X0486165Y0329955D01*
X0486088Y0329974D01*
X0486011Y0329996D01*
X0485937Y0330023D01*
X0485863Y0330053D01*
X0485791Y0330087D01*
X0485721Y0330124D01*
X0485653Y0330165D01*
X0485587Y0330209D01*
X0485523Y0330257D01*
X0485462Y0330308D01*
X0485403Y0330361D01*
X0485348Y0330418D01*
X0485295Y0330477D01*
X0485245Y0330539D01*
X0485198Y0330603D01*
X0485155Y0330670D01*
X0485115Y0330738D01*
X0485078Y0330809D01*
X0485045Y0330881D01*
X0485016Y0330955D01*
X0484990Y0331030D01*
X0484969Y0331107D01*
X0484951Y0331184D01*
X0484937Y0331262D01*
X0484927Y0331341D01*
X0484921Y0331421D01*
X0484919Y0331500D01*
X0454919Y0331500D02*
X0454921Y0331579D01*
X0454927Y0331659D01*
X0454937Y0331738D01*
X0454951Y0331816D01*
X0454969Y0331893D01*
X0454990Y0331970D01*
X0455016Y0332045D01*
X0455045Y0332119D01*
X0455078Y0332191D01*
X0455115Y0332262D01*
X0455155Y0332330D01*
X0455198Y0332397D01*
X0455245Y0332461D01*
X0455295Y0332523D01*
X0455348Y0332582D01*
X0455403Y0332639D01*
X0455462Y0332692D01*
X0455523Y0332743D01*
X0455587Y0332791D01*
X0455653Y0332835D01*
X0455721Y0332876D01*
X0455791Y0332913D01*
X0455863Y0332947D01*
X0455937Y0332977D01*
X0456011Y0333004D01*
X0456088Y0333026D01*
X0456165Y0333045D01*
X0456243Y0333060D01*
X0456322Y0333071D01*
X0456401Y0333078D01*
X0456480Y0333081D01*
X0456560Y0333080D01*
X0456639Y0333075D01*
X0456718Y0333066D01*
X0456796Y0333053D01*
X0456874Y0333036D01*
X0456951Y0333015D01*
X0457026Y0332991D01*
X0457100Y0332963D01*
X0457173Y0332931D01*
X0457244Y0332895D01*
X0457313Y0332856D01*
X0457380Y0332813D01*
X0457445Y0332767D01*
X0457508Y0332718D01*
X0457568Y0332666D01*
X0457625Y0332611D01*
X0457679Y0332553D01*
X0457731Y0332492D01*
X0457779Y0332429D01*
X0457824Y0332364D01*
X0457866Y0332296D01*
X0457904Y0332227D01*
X0457939Y0332155D01*
X0457970Y0332082D01*
X0457997Y0332007D01*
X0458021Y0331932D01*
X0458041Y0331855D01*
X0458057Y0331777D01*
X0458069Y0331698D01*
X0458077Y0331619D01*
X0458081Y0331540D01*
X0458081Y0331460D01*
X0458077Y0331381D01*
X0458069Y0331302D01*
X0458057Y0331223D01*
X0458041Y0331145D01*
X0458021Y0331068D01*
X0457997Y0330993D01*
X0457970Y0330918D01*
X0457939Y0330845D01*
X0457904Y0330773D01*
X0457866Y0330704D01*
X0457824Y0330636D01*
X0457779Y0330571D01*
X0457731Y0330508D01*
X0457679Y0330447D01*
X0457625Y0330389D01*
X0457568Y0330334D01*
X0457508Y0330282D01*
X0457445Y0330233D01*
X0457380Y0330187D01*
X0457313Y0330144D01*
X0457244Y0330105D01*
X0457173Y0330069D01*
X0457100Y0330037D01*
X0457026Y0330009D01*
X0456951Y0329985D01*
X0456874Y0329964D01*
X0456796Y0329947D01*
X0456718Y0329934D01*
X0456639Y0329925D01*
X0456560Y0329920D01*
X0456480Y0329919D01*
X0456401Y0329922D01*
X0456322Y0329929D01*
X0456243Y0329940D01*
X0456165Y0329955D01*
X0456088Y0329974D01*
X0456011Y0329996D01*
X0455937Y0330023D01*
X0455863Y0330053D01*
X0455791Y0330087D01*
X0455721Y0330124D01*
X0455653Y0330165D01*
X0455587Y0330209D01*
X0455523Y0330257D01*
X0455462Y0330308D01*
X0455403Y0330361D01*
X0455348Y0330418D01*
X0455295Y0330477D01*
X0455245Y0330539D01*
X0455198Y0330603D01*
X0455155Y0330670D01*
X0455115Y0330738D01*
X0455078Y0330809D01*
X0455045Y0330881D01*
X0455016Y0330955D01*
X0454990Y0331030D01*
X0454969Y0331107D01*
X0454951Y0331184D01*
X0454937Y0331262D01*
X0454927Y0331341D01*
X0454921Y0331421D01*
X0454919Y0331500D01*
X0344919Y0331500D02*
X0344921Y0331579D01*
X0344927Y0331659D01*
X0344937Y0331738D01*
X0344951Y0331816D01*
X0344969Y0331893D01*
X0344990Y0331970D01*
X0345016Y0332045D01*
X0345045Y0332119D01*
X0345078Y0332191D01*
X0345115Y0332262D01*
X0345155Y0332330D01*
X0345198Y0332397D01*
X0345245Y0332461D01*
X0345295Y0332523D01*
X0345348Y0332582D01*
X0345403Y0332639D01*
X0345462Y0332692D01*
X0345523Y0332743D01*
X0345587Y0332791D01*
X0345653Y0332835D01*
X0345721Y0332876D01*
X0345791Y0332913D01*
X0345863Y0332947D01*
X0345937Y0332977D01*
X0346011Y0333004D01*
X0346088Y0333026D01*
X0346165Y0333045D01*
X0346243Y0333060D01*
X0346322Y0333071D01*
X0346401Y0333078D01*
X0346480Y0333081D01*
X0346560Y0333080D01*
X0346639Y0333075D01*
X0346718Y0333066D01*
X0346796Y0333053D01*
X0346874Y0333036D01*
X0346951Y0333015D01*
X0347026Y0332991D01*
X0347100Y0332963D01*
X0347173Y0332931D01*
X0347244Y0332895D01*
X0347313Y0332856D01*
X0347380Y0332813D01*
X0347445Y0332767D01*
X0347508Y0332718D01*
X0347568Y0332666D01*
X0347625Y0332611D01*
X0347679Y0332553D01*
X0347731Y0332492D01*
X0347779Y0332429D01*
X0347824Y0332364D01*
X0347866Y0332296D01*
X0347904Y0332227D01*
X0347939Y0332155D01*
X0347970Y0332082D01*
X0347997Y0332007D01*
X0348021Y0331932D01*
X0348041Y0331855D01*
X0348057Y0331777D01*
X0348069Y0331698D01*
X0348077Y0331619D01*
X0348081Y0331540D01*
X0348081Y0331460D01*
X0348077Y0331381D01*
X0348069Y0331302D01*
X0348057Y0331223D01*
X0348041Y0331145D01*
X0348021Y0331068D01*
X0347997Y0330993D01*
X0347970Y0330918D01*
X0347939Y0330845D01*
X0347904Y0330773D01*
X0347866Y0330704D01*
X0347824Y0330636D01*
X0347779Y0330571D01*
X0347731Y0330508D01*
X0347679Y0330447D01*
X0347625Y0330389D01*
X0347568Y0330334D01*
X0347508Y0330282D01*
X0347445Y0330233D01*
X0347380Y0330187D01*
X0347313Y0330144D01*
X0347244Y0330105D01*
X0347173Y0330069D01*
X0347100Y0330037D01*
X0347026Y0330009D01*
X0346951Y0329985D01*
X0346874Y0329964D01*
X0346796Y0329947D01*
X0346718Y0329934D01*
X0346639Y0329925D01*
X0346560Y0329920D01*
X0346480Y0329919D01*
X0346401Y0329922D01*
X0346322Y0329929D01*
X0346243Y0329940D01*
X0346165Y0329955D01*
X0346088Y0329974D01*
X0346011Y0329996D01*
X0345937Y0330023D01*
X0345863Y0330053D01*
X0345791Y0330087D01*
X0345721Y0330124D01*
X0345653Y0330165D01*
X0345587Y0330209D01*
X0345523Y0330257D01*
X0345462Y0330308D01*
X0345403Y0330361D01*
X0345348Y0330418D01*
X0345295Y0330477D01*
X0345245Y0330539D01*
X0345198Y0330603D01*
X0345155Y0330670D01*
X0345115Y0330738D01*
X0345078Y0330809D01*
X0345045Y0330881D01*
X0345016Y0330955D01*
X0344990Y0331030D01*
X0344969Y0331107D01*
X0344951Y0331184D01*
X0344937Y0331262D01*
X0344927Y0331341D01*
X0344921Y0331421D01*
X0344919Y0331500D01*
X0314919Y0331500D02*
X0314921Y0331579D01*
X0314927Y0331659D01*
X0314937Y0331738D01*
X0314951Y0331816D01*
X0314969Y0331893D01*
X0314990Y0331970D01*
X0315016Y0332045D01*
X0315045Y0332119D01*
X0315078Y0332191D01*
X0315115Y0332262D01*
X0315155Y0332330D01*
X0315198Y0332397D01*
X0315245Y0332461D01*
X0315295Y0332523D01*
X0315348Y0332582D01*
X0315403Y0332639D01*
X0315462Y0332692D01*
X0315523Y0332743D01*
X0315587Y0332791D01*
X0315653Y0332835D01*
X0315721Y0332876D01*
X0315791Y0332913D01*
X0315863Y0332947D01*
X0315937Y0332977D01*
X0316011Y0333004D01*
X0316088Y0333026D01*
X0316165Y0333045D01*
X0316243Y0333060D01*
X0316322Y0333071D01*
X0316401Y0333078D01*
X0316480Y0333081D01*
X0316560Y0333080D01*
X0316639Y0333075D01*
X0316718Y0333066D01*
X0316796Y0333053D01*
X0316874Y0333036D01*
X0316951Y0333015D01*
X0317026Y0332991D01*
X0317100Y0332963D01*
X0317173Y0332931D01*
X0317244Y0332895D01*
X0317313Y0332856D01*
X0317380Y0332813D01*
X0317445Y0332767D01*
X0317508Y0332718D01*
X0317568Y0332666D01*
X0317625Y0332611D01*
X0317679Y0332553D01*
X0317731Y0332492D01*
X0317779Y0332429D01*
X0317824Y0332364D01*
X0317866Y0332296D01*
X0317904Y0332227D01*
X0317939Y0332155D01*
X0317970Y0332082D01*
X0317997Y0332007D01*
X0318021Y0331932D01*
X0318041Y0331855D01*
X0318057Y0331777D01*
X0318069Y0331698D01*
X0318077Y0331619D01*
X0318081Y0331540D01*
X0318081Y0331460D01*
X0318077Y0331381D01*
X0318069Y0331302D01*
X0318057Y0331223D01*
X0318041Y0331145D01*
X0318021Y0331068D01*
X0317997Y0330993D01*
X0317970Y0330918D01*
X0317939Y0330845D01*
X0317904Y0330773D01*
X0317866Y0330704D01*
X0317824Y0330636D01*
X0317779Y0330571D01*
X0317731Y0330508D01*
X0317679Y0330447D01*
X0317625Y0330389D01*
X0317568Y0330334D01*
X0317508Y0330282D01*
X0317445Y0330233D01*
X0317380Y0330187D01*
X0317313Y0330144D01*
X0317244Y0330105D01*
X0317173Y0330069D01*
X0317100Y0330037D01*
X0317026Y0330009D01*
X0316951Y0329985D01*
X0316874Y0329964D01*
X0316796Y0329947D01*
X0316718Y0329934D01*
X0316639Y0329925D01*
X0316560Y0329920D01*
X0316480Y0329919D01*
X0316401Y0329922D01*
X0316322Y0329929D01*
X0316243Y0329940D01*
X0316165Y0329955D01*
X0316088Y0329974D01*
X0316011Y0329996D01*
X0315937Y0330023D01*
X0315863Y0330053D01*
X0315791Y0330087D01*
X0315721Y0330124D01*
X0315653Y0330165D01*
X0315587Y0330209D01*
X0315523Y0330257D01*
X0315462Y0330308D01*
X0315403Y0330361D01*
X0315348Y0330418D01*
X0315295Y0330477D01*
X0315245Y0330539D01*
X0315198Y0330603D01*
X0315155Y0330670D01*
X0315115Y0330738D01*
X0315078Y0330809D01*
X0315045Y0330881D01*
X0315016Y0330955D01*
X0314990Y0331030D01*
X0314969Y0331107D01*
X0314951Y0331184D01*
X0314937Y0331262D01*
X0314927Y0331341D01*
X0314921Y0331421D01*
X0314919Y0331500D01*
X0234919Y0331500D02*
X0234921Y0331579D01*
X0234927Y0331659D01*
X0234937Y0331738D01*
X0234951Y0331816D01*
X0234969Y0331893D01*
X0234990Y0331970D01*
X0235016Y0332045D01*
X0235045Y0332119D01*
X0235078Y0332191D01*
X0235115Y0332262D01*
X0235155Y0332330D01*
X0235198Y0332397D01*
X0235245Y0332461D01*
X0235295Y0332523D01*
X0235348Y0332582D01*
X0235403Y0332639D01*
X0235462Y0332692D01*
X0235523Y0332743D01*
X0235587Y0332791D01*
X0235653Y0332835D01*
X0235721Y0332876D01*
X0235791Y0332913D01*
X0235863Y0332947D01*
X0235937Y0332977D01*
X0236011Y0333004D01*
X0236088Y0333026D01*
X0236165Y0333045D01*
X0236243Y0333060D01*
X0236322Y0333071D01*
X0236401Y0333078D01*
X0236480Y0333081D01*
X0236560Y0333080D01*
X0236639Y0333075D01*
X0236718Y0333066D01*
X0236796Y0333053D01*
X0236874Y0333036D01*
X0236951Y0333015D01*
X0237026Y0332991D01*
X0237100Y0332963D01*
X0237173Y0332931D01*
X0237244Y0332895D01*
X0237313Y0332856D01*
X0237380Y0332813D01*
X0237445Y0332767D01*
X0237508Y0332718D01*
X0237568Y0332666D01*
X0237625Y0332611D01*
X0237679Y0332553D01*
X0237731Y0332492D01*
X0237779Y0332429D01*
X0237824Y0332364D01*
X0237866Y0332296D01*
X0237904Y0332227D01*
X0237939Y0332155D01*
X0237970Y0332082D01*
X0237997Y0332007D01*
X0238021Y0331932D01*
X0238041Y0331855D01*
X0238057Y0331777D01*
X0238069Y0331698D01*
X0238077Y0331619D01*
X0238081Y0331540D01*
X0238081Y0331460D01*
X0238077Y0331381D01*
X0238069Y0331302D01*
X0238057Y0331223D01*
X0238041Y0331145D01*
X0238021Y0331068D01*
X0237997Y0330993D01*
X0237970Y0330918D01*
X0237939Y0330845D01*
X0237904Y0330773D01*
X0237866Y0330704D01*
X0237824Y0330636D01*
X0237779Y0330571D01*
X0237731Y0330508D01*
X0237679Y0330447D01*
X0237625Y0330389D01*
X0237568Y0330334D01*
X0237508Y0330282D01*
X0237445Y0330233D01*
X0237380Y0330187D01*
X0237313Y0330144D01*
X0237244Y0330105D01*
X0237173Y0330069D01*
X0237100Y0330037D01*
X0237026Y0330009D01*
X0236951Y0329985D01*
X0236874Y0329964D01*
X0236796Y0329947D01*
X0236718Y0329934D01*
X0236639Y0329925D01*
X0236560Y0329920D01*
X0236480Y0329919D01*
X0236401Y0329922D01*
X0236322Y0329929D01*
X0236243Y0329940D01*
X0236165Y0329955D01*
X0236088Y0329974D01*
X0236011Y0329996D01*
X0235937Y0330023D01*
X0235863Y0330053D01*
X0235791Y0330087D01*
X0235721Y0330124D01*
X0235653Y0330165D01*
X0235587Y0330209D01*
X0235523Y0330257D01*
X0235462Y0330308D01*
X0235403Y0330361D01*
X0235348Y0330418D01*
X0235295Y0330477D01*
X0235245Y0330539D01*
X0235198Y0330603D01*
X0235155Y0330670D01*
X0235115Y0330738D01*
X0235078Y0330809D01*
X0235045Y0330881D01*
X0235016Y0330955D01*
X0234990Y0331030D01*
X0234969Y0331107D01*
X0234951Y0331184D01*
X0234937Y0331262D01*
X0234927Y0331341D01*
X0234921Y0331421D01*
X0234919Y0331500D01*
X0204919Y0331500D02*
X0204921Y0331579D01*
X0204927Y0331659D01*
X0204937Y0331738D01*
X0204951Y0331816D01*
X0204969Y0331893D01*
X0204990Y0331970D01*
X0205016Y0332045D01*
X0205045Y0332119D01*
X0205078Y0332191D01*
X0205115Y0332262D01*
X0205155Y0332330D01*
X0205198Y0332397D01*
X0205245Y0332461D01*
X0205295Y0332523D01*
X0205348Y0332582D01*
X0205403Y0332639D01*
X0205462Y0332692D01*
X0205523Y0332743D01*
X0205587Y0332791D01*
X0205653Y0332835D01*
X0205721Y0332876D01*
X0205791Y0332913D01*
X0205863Y0332947D01*
X0205937Y0332977D01*
X0206011Y0333004D01*
X0206088Y0333026D01*
X0206165Y0333045D01*
X0206243Y0333060D01*
X0206322Y0333071D01*
X0206401Y0333078D01*
X0206480Y0333081D01*
X0206560Y0333080D01*
X0206639Y0333075D01*
X0206718Y0333066D01*
X0206796Y0333053D01*
X0206874Y0333036D01*
X0206951Y0333015D01*
X0207026Y0332991D01*
X0207100Y0332963D01*
X0207173Y0332931D01*
X0207244Y0332895D01*
X0207313Y0332856D01*
X0207380Y0332813D01*
X0207445Y0332767D01*
X0207508Y0332718D01*
X0207568Y0332666D01*
X0207625Y0332611D01*
X0207679Y0332553D01*
X0207731Y0332492D01*
X0207779Y0332429D01*
X0207824Y0332364D01*
X0207866Y0332296D01*
X0207904Y0332227D01*
X0207939Y0332155D01*
X0207970Y0332082D01*
X0207997Y0332007D01*
X0208021Y0331932D01*
X0208041Y0331855D01*
X0208057Y0331777D01*
X0208069Y0331698D01*
X0208077Y0331619D01*
X0208081Y0331540D01*
X0208081Y0331460D01*
X0208077Y0331381D01*
X0208069Y0331302D01*
X0208057Y0331223D01*
X0208041Y0331145D01*
X0208021Y0331068D01*
X0207997Y0330993D01*
X0207970Y0330918D01*
X0207939Y0330845D01*
X0207904Y0330773D01*
X0207866Y0330704D01*
X0207824Y0330636D01*
X0207779Y0330571D01*
X0207731Y0330508D01*
X0207679Y0330447D01*
X0207625Y0330389D01*
X0207568Y0330334D01*
X0207508Y0330282D01*
X0207445Y0330233D01*
X0207380Y0330187D01*
X0207313Y0330144D01*
X0207244Y0330105D01*
X0207173Y0330069D01*
X0207100Y0330037D01*
X0207026Y0330009D01*
X0206951Y0329985D01*
X0206874Y0329964D01*
X0206796Y0329947D01*
X0206718Y0329934D01*
X0206639Y0329925D01*
X0206560Y0329920D01*
X0206480Y0329919D01*
X0206401Y0329922D01*
X0206322Y0329929D01*
X0206243Y0329940D01*
X0206165Y0329955D01*
X0206088Y0329974D01*
X0206011Y0329996D01*
X0205937Y0330023D01*
X0205863Y0330053D01*
X0205791Y0330087D01*
X0205721Y0330124D01*
X0205653Y0330165D01*
X0205587Y0330209D01*
X0205523Y0330257D01*
X0205462Y0330308D01*
X0205403Y0330361D01*
X0205348Y0330418D01*
X0205295Y0330477D01*
X0205245Y0330539D01*
X0205198Y0330603D01*
X0205155Y0330670D01*
X0205115Y0330738D01*
X0205078Y0330809D01*
X0205045Y0330881D01*
X0205016Y0330955D01*
X0204990Y0331030D01*
X0204969Y0331107D01*
X0204951Y0331184D01*
X0204937Y0331262D01*
X0204927Y0331341D01*
X0204921Y0331421D01*
X0204919Y0331500D01*
X0094919Y0331500D02*
X0094921Y0331579D01*
X0094927Y0331659D01*
X0094937Y0331738D01*
X0094951Y0331816D01*
X0094969Y0331893D01*
X0094990Y0331970D01*
X0095016Y0332045D01*
X0095045Y0332119D01*
X0095078Y0332191D01*
X0095115Y0332262D01*
X0095155Y0332330D01*
X0095198Y0332397D01*
X0095245Y0332461D01*
X0095295Y0332523D01*
X0095348Y0332582D01*
X0095403Y0332639D01*
X0095462Y0332692D01*
X0095523Y0332743D01*
X0095587Y0332791D01*
X0095653Y0332835D01*
X0095721Y0332876D01*
X0095791Y0332913D01*
X0095863Y0332947D01*
X0095937Y0332977D01*
X0096011Y0333004D01*
X0096088Y0333026D01*
X0096165Y0333045D01*
X0096243Y0333060D01*
X0096322Y0333071D01*
X0096401Y0333078D01*
X0096480Y0333081D01*
X0096560Y0333080D01*
X0096639Y0333075D01*
X0096718Y0333066D01*
X0096796Y0333053D01*
X0096874Y0333036D01*
X0096951Y0333015D01*
X0097026Y0332991D01*
X0097100Y0332963D01*
X0097173Y0332931D01*
X0097244Y0332895D01*
X0097313Y0332856D01*
X0097380Y0332813D01*
X0097445Y0332767D01*
X0097508Y0332718D01*
X0097568Y0332666D01*
X0097625Y0332611D01*
X0097679Y0332553D01*
X0097731Y0332492D01*
X0097779Y0332429D01*
X0097824Y0332364D01*
X0097866Y0332296D01*
X0097904Y0332227D01*
X0097939Y0332155D01*
X0097970Y0332082D01*
X0097997Y0332007D01*
X0098021Y0331932D01*
X0098041Y0331855D01*
X0098057Y0331777D01*
X0098069Y0331698D01*
X0098077Y0331619D01*
X0098081Y0331540D01*
X0098081Y0331460D01*
X0098077Y0331381D01*
X0098069Y0331302D01*
X0098057Y0331223D01*
X0098041Y0331145D01*
X0098021Y0331068D01*
X0097997Y0330993D01*
X0097970Y0330918D01*
X0097939Y0330845D01*
X0097904Y0330773D01*
X0097866Y0330704D01*
X0097824Y0330636D01*
X0097779Y0330571D01*
X0097731Y0330508D01*
X0097679Y0330447D01*
X0097625Y0330389D01*
X0097568Y0330334D01*
X0097508Y0330282D01*
X0097445Y0330233D01*
X0097380Y0330187D01*
X0097313Y0330144D01*
X0097244Y0330105D01*
X0097173Y0330069D01*
X0097100Y0330037D01*
X0097026Y0330009D01*
X0096951Y0329985D01*
X0096874Y0329964D01*
X0096796Y0329947D01*
X0096718Y0329934D01*
X0096639Y0329925D01*
X0096560Y0329920D01*
X0096480Y0329919D01*
X0096401Y0329922D01*
X0096322Y0329929D01*
X0096243Y0329940D01*
X0096165Y0329955D01*
X0096088Y0329974D01*
X0096011Y0329996D01*
X0095937Y0330023D01*
X0095863Y0330053D01*
X0095791Y0330087D01*
X0095721Y0330124D01*
X0095653Y0330165D01*
X0095587Y0330209D01*
X0095523Y0330257D01*
X0095462Y0330308D01*
X0095403Y0330361D01*
X0095348Y0330418D01*
X0095295Y0330477D01*
X0095245Y0330539D01*
X0095198Y0330603D01*
X0095155Y0330670D01*
X0095115Y0330738D01*
X0095078Y0330809D01*
X0095045Y0330881D01*
X0095016Y0330955D01*
X0094990Y0331030D01*
X0094969Y0331107D01*
X0094951Y0331184D01*
X0094937Y0331262D01*
X0094927Y0331341D01*
X0094921Y0331421D01*
X0094919Y0331500D01*
X0064919Y0331500D02*
X0064921Y0331579D01*
X0064927Y0331659D01*
X0064937Y0331738D01*
X0064951Y0331816D01*
X0064969Y0331893D01*
X0064990Y0331970D01*
X0065016Y0332045D01*
X0065045Y0332119D01*
X0065078Y0332191D01*
X0065115Y0332262D01*
X0065155Y0332330D01*
X0065198Y0332397D01*
X0065245Y0332461D01*
X0065295Y0332523D01*
X0065348Y0332582D01*
X0065403Y0332639D01*
X0065462Y0332692D01*
X0065523Y0332743D01*
X0065587Y0332791D01*
X0065653Y0332835D01*
X0065721Y0332876D01*
X0065791Y0332913D01*
X0065863Y0332947D01*
X0065937Y0332977D01*
X0066011Y0333004D01*
X0066088Y0333026D01*
X0066165Y0333045D01*
X0066243Y0333060D01*
X0066322Y0333071D01*
X0066401Y0333078D01*
X0066480Y0333081D01*
X0066560Y0333080D01*
X0066639Y0333075D01*
X0066718Y0333066D01*
X0066796Y0333053D01*
X0066874Y0333036D01*
X0066951Y0333015D01*
X0067026Y0332991D01*
X0067100Y0332963D01*
X0067173Y0332931D01*
X0067244Y0332895D01*
X0067313Y0332856D01*
X0067380Y0332813D01*
X0067445Y0332767D01*
X0067508Y0332718D01*
X0067568Y0332666D01*
X0067625Y0332611D01*
X0067679Y0332553D01*
X0067731Y0332492D01*
X0067779Y0332429D01*
X0067824Y0332364D01*
X0067866Y0332296D01*
X0067904Y0332227D01*
X0067939Y0332155D01*
X0067970Y0332082D01*
X0067997Y0332007D01*
X0068021Y0331932D01*
X0068041Y0331855D01*
X0068057Y0331777D01*
X0068069Y0331698D01*
X0068077Y0331619D01*
X0068081Y0331540D01*
X0068081Y0331460D01*
X0068077Y0331381D01*
X0068069Y0331302D01*
X0068057Y0331223D01*
X0068041Y0331145D01*
X0068021Y0331068D01*
X0067997Y0330993D01*
X0067970Y0330918D01*
X0067939Y0330845D01*
X0067904Y0330773D01*
X0067866Y0330704D01*
X0067824Y0330636D01*
X0067779Y0330571D01*
X0067731Y0330508D01*
X0067679Y0330447D01*
X0067625Y0330389D01*
X0067568Y0330334D01*
X0067508Y0330282D01*
X0067445Y0330233D01*
X0067380Y0330187D01*
X0067313Y0330144D01*
X0067244Y0330105D01*
X0067173Y0330069D01*
X0067100Y0330037D01*
X0067026Y0330009D01*
X0066951Y0329985D01*
X0066874Y0329964D01*
X0066796Y0329947D01*
X0066718Y0329934D01*
X0066639Y0329925D01*
X0066560Y0329920D01*
X0066480Y0329919D01*
X0066401Y0329922D01*
X0066322Y0329929D01*
X0066243Y0329940D01*
X0066165Y0329955D01*
X0066088Y0329974D01*
X0066011Y0329996D01*
X0065937Y0330023D01*
X0065863Y0330053D01*
X0065791Y0330087D01*
X0065721Y0330124D01*
X0065653Y0330165D01*
X0065587Y0330209D01*
X0065523Y0330257D01*
X0065462Y0330308D01*
X0065403Y0330361D01*
X0065348Y0330418D01*
X0065295Y0330477D01*
X0065245Y0330539D01*
X0065198Y0330603D01*
X0065155Y0330670D01*
X0065115Y0330738D01*
X0065078Y0330809D01*
X0065045Y0330881D01*
X0065016Y0330955D01*
X0064990Y0331030D01*
X0064969Y0331107D01*
X0064951Y0331184D01*
X0064937Y0331262D01*
X0064927Y0331341D01*
X0064921Y0331421D01*
X0064919Y0331500D01*
D13*
X0051500Y0265043D03*
X0051500Y0257957D03*
X0051500Y0195043D03*
X0051500Y0187957D03*
X0051500Y0125043D03*
X0051500Y0117957D03*
X0051500Y0055043D03*
X0051500Y0047957D03*
X0201500Y0092957D03*
X0201500Y0100043D03*
X0201500Y0112957D03*
X0201500Y0120043D03*
X0277500Y0138957D03*
X0277500Y0146043D03*
X0336500Y0120043D03*
X0336500Y0112957D03*
X0336500Y0100043D03*
X0336500Y0092957D03*
X0471500Y0092957D03*
X0471500Y0100043D03*
X0471500Y0162957D03*
X0471500Y0170043D03*
X0471500Y0182957D03*
X0471500Y0190043D03*
X0471500Y0252957D03*
X0471500Y0260043D03*
X0336500Y0260043D03*
X0336500Y0252957D03*
X0336500Y0240043D03*
X0336500Y0232957D03*
X0265500Y0214543D03*
X0265500Y0207457D03*
X0201500Y0232957D03*
X0201500Y0240043D03*
X0201500Y0252957D03*
X0201500Y0260043D03*
D14*
X0227957Y0271500D03*
X0235043Y0271500D03*
X0235043Y0291500D03*
X0227957Y0291500D03*
X0252957Y0346500D03*
X0260043Y0346500D03*
X0362957Y0291500D03*
X0370043Y0291500D03*
X0370043Y0271500D03*
X0362957Y0271500D03*
X0362957Y0221500D03*
X0370043Y0221500D03*
X0370043Y0201500D03*
X0362957Y0201500D03*
X0314543Y0183500D03*
X0307457Y0183500D03*
X0362957Y0151500D03*
X0370043Y0151500D03*
X0370043Y0081500D03*
X0362957Y0081500D03*
X0235043Y0081500D03*
X0227957Y0081500D03*
X0227957Y0061500D03*
X0235043Y0061500D03*
X0235043Y0131500D03*
X0227957Y0131500D03*
X0227957Y0151500D03*
X0235043Y0151500D03*
X0235043Y0201500D03*
X0227957Y0201500D03*
X0227957Y0221500D03*
X0235043Y0221500D03*
X0100043Y0221500D03*
X0092957Y0221500D03*
X0092957Y0201500D03*
X0100043Y0201500D03*
X0055043Y0226500D03*
X0047957Y0226500D03*
X0092957Y0271500D03*
X0100043Y0271500D03*
X0100043Y0291500D03*
X0092957Y0291500D03*
X0055043Y0296500D03*
X0047957Y0296500D03*
X0047957Y0156500D03*
X0055043Y0156500D03*
X0092957Y0151500D03*
X0100043Y0151500D03*
X0100043Y0131500D03*
X0092957Y0131500D03*
X0055043Y0086500D03*
X0047957Y0086500D03*
X0092957Y0081500D03*
X0100043Y0081500D03*
X0100043Y0061500D03*
X0092957Y0061500D03*
X0507957Y0071500D03*
X0515043Y0071500D03*
X0515043Y0116500D03*
X0507957Y0116500D03*
X0507957Y0161500D03*
X0515043Y0161500D03*
X0515043Y0206500D03*
X0507957Y0206500D03*
X0507957Y0251500D03*
X0515043Y0251500D03*
D15*
X0501500Y0266500D03*
X0501500Y0221500D03*
X0501500Y0176500D03*
X0501500Y0131500D03*
X0501500Y0086500D03*
X0366500Y0071500D03*
X0366500Y0141500D03*
X0366500Y0191500D03*
X0366500Y0231500D03*
X0366500Y0261500D03*
X0366500Y0301500D03*
X0231500Y0301500D03*
X0231500Y0261500D03*
X0231500Y0231500D03*
X0231500Y0191500D03*
X0231500Y0161500D03*
X0231500Y0121500D03*
X0231500Y0091500D03*
X0231500Y0051500D03*
X0096500Y0051500D03*
X0096500Y0091500D03*
X0096500Y0121500D03*
X0096500Y0161500D03*
X0096500Y0191500D03*
X0096500Y0231500D03*
X0096500Y0261500D03*
X0096500Y0301500D03*
D16*
X0259571Y0187327D03*
X0259571Y0185358D03*
X0259571Y0183390D03*
X0259571Y0181421D03*
X0259571Y0179453D03*
X0259571Y0177484D03*
X0259571Y0175516D03*
X0259571Y0173547D03*
X0259571Y0171579D03*
X0259571Y0169610D03*
X0259571Y0167642D03*
X0259571Y0165673D03*
X0293429Y0165673D03*
X0293429Y0167642D03*
X0293429Y0169610D03*
X0293429Y0171579D03*
X0293429Y0173547D03*
X0293429Y0175516D03*
X0293429Y0177484D03*
X0293429Y0179453D03*
X0293429Y0181421D03*
X0293429Y0183390D03*
X0293429Y0185358D03*
X0293429Y0187327D03*
D17*
X0287327Y0193429D03*
X0285358Y0193429D03*
X0283390Y0193429D03*
X0281421Y0193429D03*
X0279453Y0193429D03*
X0277484Y0193429D03*
X0275516Y0193429D03*
X0273547Y0193429D03*
X0271579Y0193429D03*
X0269610Y0193429D03*
X0267642Y0193429D03*
X0265673Y0193429D03*
X0265673Y0159571D03*
X0267642Y0159571D03*
X0269610Y0159571D03*
X0271579Y0159571D03*
X0273547Y0159571D03*
X0275516Y0159571D03*
X0277484Y0159571D03*
X0279453Y0159571D03*
X0281421Y0159571D03*
X0283390Y0159571D03*
X0285358Y0159571D03*
X0287327Y0159571D03*
D18*
X0336500Y0151500D03*
X0336500Y0141500D03*
X0336500Y0131500D03*
X0336500Y0081500D03*
X0336500Y0071500D03*
X0336500Y0061500D03*
X0201500Y0061500D03*
X0201500Y0071500D03*
X0201500Y0081500D03*
X0201500Y0131500D03*
X0201500Y0141500D03*
X0201500Y0151500D03*
X0201500Y0201500D03*
X0201500Y0211500D03*
X0201500Y0221500D03*
X0201500Y0271500D03*
X0201500Y0281500D03*
X0201500Y0291500D03*
X0066500Y0291500D03*
X0066500Y0281500D03*
X0066500Y0271500D03*
X0066500Y0221500D03*
X0066500Y0211500D03*
X0066500Y0201500D03*
X0066500Y0151500D03*
X0066500Y0141500D03*
X0066500Y0131500D03*
X0066500Y0081500D03*
X0066500Y0071500D03*
X0066500Y0061500D03*
X0336500Y0201500D03*
X0336500Y0211500D03*
X0336500Y0221500D03*
X0336500Y0271500D03*
X0336500Y0281500D03*
X0336500Y0291500D03*
X0471500Y0291500D03*
X0471500Y0281500D03*
X0471500Y0271500D03*
X0471500Y0221500D03*
X0471500Y0211500D03*
X0471500Y0201500D03*
X0471500Y0151500D03*
X0471500Y0141500D03*
X0471500Y0131500D03*
X0471500Y0081500D03*
X0471500Y0071500D03*
X0471500Y0061500D03*
D19*
X0521500Y0086500D03*
X0531500Y0086500D03*
X0531500Y0131500D03*
X0521500Y0131500D03*
X0521500Y0176500D03*
X0531500Y0176500D03*
X0531500Y0221500D03*
X0521500Y0221500D03*
X0521500Y0266500D03*
X0531500Y0266500D03*
D20*
X0290566Y0330831D02*
X0290362Y0330179D01*
X0290033Y0329580D01*
X0289595Y0329056D01*
X0289062Y0328628D01*
X0288457Y0328312D01*
X0287801Y0328120D01*
X0287120Y0328060D01*
X0286450Y0328139D01*
X0285809Y0328348D01*
X0285220Y0328678D01*
X0284708Y0329117D01*
X0284290Y0329647D01*
X0283984Y0330248D01*
X0283802Y0330897D01*
X0283750Y0331570D01*
X0283813Y0332230D01*
X0284003Y0332864D01*
X0284314Y0333450D01*
X0284733Y0333963D01*
X0285244Y0334385D01*
X0285827Y0334699D01*
X0286461Y0334893D01*
X0287120Y0334959D01*
X0287801Y0334899D01*
X0288456Y0334708D01*
X0289062Y0334392D01*
X0289594Y0333964D01*
X0290033Y0333440D01*
X0290361Y0332841D01*
X0290566Y0332189D01*
X0290640Y0331510D01*
X0290566Y0330831D01*
X0290587Y0331016D02*
X0283793Y0331016D01*
X0283754Y0331514D02*
X0290640Y0331514D01*
X0290585Y0332013D02*
X0283792Y0332013D01*
X0283897Y0332512D02*
X0290465Y0332512D01*
X0290269Y0333010D02*
X0284080Y0333010D01*
X0284362Y0333509D02*
X0289976Y0333509D01*
X0289541Y0334007D02*
X0284786Y0334007D01*
X0285468Y0334506D02*
X0288844Y0334506D01*
X0290468Y0330517D02*
X0283909Y0330517D01*
X0284101Y0330019D02*
X0290274Y0330019D01*
X0289984Y0329520D02*
X0284390Y0329520D01*
X0284818Y0329022D02*
X0289552Y0329022D01*
X0288862Y0328523D02*
X0285496Y0328523D01*
X0279802Y0330517D02*
X0273221Y0330517D01*
X0273308Y0330219D02*
X0273119Y0330867D01*
X0273060Y0331540D01*
X0273120Y0332201D01*
X0273308Y0332837D01*
X0273616Y0333425D01*
X0274034Y0333941D01*
X0274544Y0334366D01*
X0275127Y0334683D01*
X0275760Y0334880D01*
X0276420Y0334950D01*
X0277108Y0334885D01*
X0277770Y0334687D01*
X0278381Y0334364D01*
X0278917Y0333928D01*
X0279358Y0333396D01*
X0279686Y0332788D01*
X0279890Y0332127D01*
X0279960Y0331440D01*
X0279883Y0330771D01*
X0279678Y0330129D01*
X0279351Y0329540D01*
X0278915Y0329027D01*
X0278388Y0328608D01*
X0277789Y0328300D01*
X0277141Y0328115D01*
X0276470Y0328059D01*
X0275798Y0328132D01*
X0275154Y0328335D01*
X0274561Y0328659D01*
X0274044Y0329093D01*
X0273620Y0329620D01*
X0273308Y0330219D01*
X0273412Y0330019D02*
X0279616Y0330019D01*
X0279334Y0329520D02*
X0273700Y0329520D01*
X0274129Y0329022D02*
X0278909Y0329022D01*
X0278223Y0328523D02*
X0274810Y0328523D01*
X0273106Y0331016D02*
X0279912Y0331016D01*
X0279953Y0331514D02*
X0273062Y0331514D01*
X0273103Y0332013D02*
X0279901Y0332013D01*
X0279771Y0332512D02*
X0273212Y0332512D01*
X0273399Y0333010D02*
X0279566Y0333010D01*
X0279265Y0333509D02*
X0273684Y0333509D01*
X0274113Y0334007D02*
X0278820Y0334007D01*
X0278114Y0334506D02*
X0274801Y0334506D01*
X0268990Y0332802D02*
X0269197Y0332140D01*
X0269270Y0331450D01*
X0269189Y0330769D01*
X0268976Y0330118D01*
X0268640Y0329521D01*
X0268194Y0329000D01*
X0267655Y0328577D01*
X0267043Y0328267D01*
X0266383Y0328082D01*
X0265700Y0328030D01*
X0265033Y0328108D01*
X0264394Y0328315D01*
X0263808Y0328643D01*
X0263297Y0329079D01*
X0262881Y0329606D01*
X0262575Y0330204D01*
X0262393Y0330851D01*
X0262340Y0331520D01*
X0262397Y0332184D01*
X0262583Y0332824D01*
X0262891Y0333416D01*
X0263308Y0333936D01*
X0263818Y0334365D01*
X0264402Y0334686D01*
X0265038Y0334887D01*
X0265700Y0334960D01*
X0266392Y0334898D01*
X0267058Y0334702D01*
X0267673Y0334380D01*
X0268213Y0333944D01*
X0268658Y0333412D01*
X0268990Y0332802D01*
X0268877Y0333010D02*
X0262680Y0333010D01*
X0262492Y0332512D02*
X0269081Y0332512D01*
X0269210Y0332013D02*
X0262382Y0332013D01*
X0262340Y0331514D02*
X0269264Y0331514D01*
X0269218Y0331016D02*
X0262380Y0331016D01*
X0262487Y0330517D02*
X0269106Y0330517D01*
X0268920Y0330019D02*
X0262670Y0330019D01*
X0262948Y0329520D02*
X0268640Y0329520D01*
X0268212Y0329022D02*
X0263363Y0329022D01*
X0264021Y0328523D02*
X0267549Y0328523D01*
X0268577Y0333509D02*
X0262965Y0333509D01*
X0263392Y0334007D02*
X0268135Y0334007D01*
X0267433Y0334506D02*
X0264074Y0334506D01*
X0034887Y0292962D02*
X0034960Y0292300D01*
X0034898Y0291608D01*
X0034702Y0290942D01*
X0034380Y0290327D01*
X0033944Y0289787D01*
X0033412Y0289342D01*
X0032802Y0289010D01*
X0032140Y0288803D01*
X0031450Y0288730D01*
X0030769Y0288811D01*
X0030118Y0289024D01*
X0029521Y0289360D01*
X0029000Y0289806D01*
X0028577Y0290345D01*
X0028267Y0290957D01*
X0028082Y0291617D01*
X0028030Y0292300D01*
X0028108Y0292967D01*
X0028315Y0293606D01*
X0028643Y0294192D01*
X0029079Y0294703D01*
X0029606Y0295119D01*
X0030204Y0295425D01*
X0030851Y0295607D01*
X0031520Y0295660D01*
X0032184Y0295603D01*
X0032824Y0295417D01*
X0033416Y0295109D01*
X0033936Y0294692D01*
X0034365Y0294182D01*
X0034686Y0293598D01*
X0034887Y0292962D01*
X0034834Y0293129D02*
X0028161Y0293129D01*
X0028069Y0292631D02*
X0034923Y0292631D01*
X0034945Y0292132D02*
X0028043Y0292132D01*
X0028081Y0291634D02*
X0034900Y0291634D01*
X0034759Y0291135D02*
X0028217Y0291135D01*
X0028429Y0290637D02*
X0034542Y0290637D01*
X0034227Y0290138D02*
X0028740Y0290138D01*
X0029195Y0289640D02*
X0033768Y0289640D01*
X0033042Y0289141D02*
X0029910Y0289141D01*
X0030867Y0284881D02*
X0031540Y0284940D01*
X0032201Y0284880D01*
X0032837Y0284692D01*
X0033425Y0284384D01*
X0033941Y0283966D01*
X0034366Y0283456D01*
X0034683Y0282873D01*
X0034880Y0282240D01*
X0034950Y0281580D01*
X0034885Y0280892D01*
X0034687Y0280230D01*
X0034364Y0279619D01*
X0033928Y0279083D01*
X0033396Y0278642D01*
X0032788Y0278314D01*
X0032127Y0278110D01*
X0031440Y0278040D01*
X0030771Y0278117D01*
X0030129Y0278322D01*
X0029540Y0278649D01*
X0029027Y0279085D01*
X0028608Y0279612D01*
X0028300Y0280211D01*
X0028115Y0280859D01*
X0028059Y0281530D01*
X0028132Y0282202D01*
X0028335Y0282846D01*
X0028659Y0283439D01*
X0029093Y0283956D01*
X0029620Y0284380D01*
X0030219Y0284692D01*
X0030867Y0284881D01*
X0030147Y0284654D02*
X0032909Y0284654D01*
X0033706Y0284156D02*
X0029341Y0284156D01*
X0028843Y0283657D02*
X0034198Y0283657D01*
X0034527Y0283159D02*
X0028506Y0283159D01*
X0028277Y0282660D02*
X0034749Y0282660D01*
X0034888Y0282162D02*
X0028128Y0282162D01*
X0028074Y0281663D02*
X0034941Y0281663D01*
X0034911Y0281165D02*
X0028090Y0281165D01*
X0028170Y0280666D02*
X0034818Y0280666D01*
X0034655Y0280168D02*
X0028322Y0280168D01*
X0028579Y0279669D02*
X0034391Y0279669D01*
X0034000Y0279171D02*
X0028959Y0279171D01*
X0029513Y0278672D02*
X0033432Y0278672D01*
X0032333Y0278174D02*
X0030592Y0278174D01*
X0030897Y0274198D02*
X0031570Y0274250D01*
X0032230Y0274187D01*
X0032864Y0273997D01*
X0033450Y0273686D01*
X0033963Y0273267D01*
X0034385Y0272756D01*
X0034699Y0272173D01*
X0034893Y0271539D01*
X0034959Y0270880D01*
X0034899Y0270199D01*
X0034708Y0269544D01*
X0034392Y0268938D01*
X0033964Y0268406D01*
X0033440Y0267967D01*
X0032841Y0267639D01*
X0032189Y0267434D01*
X0031510Y0267360D01*
X0030831Y0267434D01*
X0030179Y0267638D01*
X0029580Y0267967D01*
X0029056Y0268405D01*
X0028628Y0268938D01*
X0028312Y0269543D01*
X0028120Y0270199D01*
X0028060Y0270880D01*
X0028139Y0271550D01*
X0028348Y0272191D01*
X0028678Y0272780D01*
X0029117Y0273292D01*
X0029647Y0273710D01*
X0030248Y0274016D01*
X0030897Y0274198D01*
X0030853Y0274186D02*
X0032236Y0274186D01*
X0033448Y0273687D02*
X0029618Y0273687D01*
X0029028Y0273189D02*
X0034028Y0273189D01*
X0034421Y0272690D02*
X0028628Y0272690D01*
X0028348Y0272192D02*
X0034689Y0272192D01*
X0034846Y0271693D02*
X0028186Y0271693D01*
X0028097Y0271195D02*
X0034928Y0271195D01*
X0034943Y0270696D02*
X0028076Y0270696D01*
X0028120Y0270198D02*
X0034899Y0270198D01*
X0034753Y0269699D02*
X0028266Y0269699D01*
X0028491Y0269201D02*
X0034529Y0269201D01*
X0034202Y0268702D02*
X0028817Y0268702D01*
X0029297Y0268204D02*
X0033723Y0268204D01*
X0032962Y0267705D02*
X0030057Y0267705D01*
X0028327Y0293628D02*
X0034670Y0293628D01*
X0034396Y0294126D02*
X0028606Y0294126D01*
X0029012Y0294625D02*
X0033993Y0294625D01*
X0033389Y0295123D02*
X0029613Y0295123D01*
X0031033Y0295622D02*
X0031965Y0295622D01*
X0031520Y0225660D02*
X0030851Y0225607D01*
X0030204Y0225425D01*
X0029606Y0225119D01*
X0029079Y0224703D01*
X0028643Y0224192D01*
X0028315Y0223606D01*
X0028108Y0222967D01*
X0028030Y0222300D01*
X0028082Y0221617D01*
X0028267Y0220957D01*
X0028577Y0220345D01*
X0029000Y0219806D01*
X0029521Y0219360D01*
X0030118Y0219024D01*
X0030769Y0218811D01*
X0031450Y0218730D01*
X0032140Y0218803D01*
X0032802Y0219010D01*
X0033412Y0219342D01*
X0033944Y0219787D01*
X0034380Y0220327D01*
X0034702Y0220942D01*
X0034898Y0221608D01*
X0034960Y0222300D01*
X0034887Y0222962D01*
X0034686Y0223598D01*
X0034365Y0224182D01*
X0033936Y0224692D01*
X0033416Y0225109D01*
X0032824Y0225417D01*
X0032184Y0225603D01*
X0031520Y0225660D01*
X0032988Y0225332D02*
X0030022Y0225332D01*
X0029243Y0224833D02*
X0033760Y0224833D01*
X0034237Y0224335D02*
X0028764Y0224335D01*
X0028444Y0223836D02*
X0034555Y0223836D01*
X0034768Y0223338D02*
X0028228Y0223338D01*
X0028093Y0222839D02*
X0034900Y0222839D01*
X0034955Y0222341D02*
X0028035Y0222341D01*
X0028065Y0221842D02*
X0034919Y0221842D01*
X0034820Y0221343D02*
X0028159Y0221343D01*
X0028324Y0220845D02*
X0034651Y0220845D01*
X0034390Y0220346D02*
X0028577Y0220346D01*
X0028968Y0219848D02*
X0033993Y0219848D01*
X0033420Y0219349D02*
X0029540Y0219349D01*
X0030648Y0218851D02*
X0032293Y0218851D01*
X0032201Y0214880D02*
X0032837Y0214692D01*
X0033425Y0214384D01*
X0033941Y0213966D01*
X0034366Y0213456D01*
X0034683Y0212873D01*
X0034880Y0212240D01*
X0034950Y0211580D01*
X0034885Y0210892D01*
X0034687Y0210230D01*
X0034364Y0209619D01*
X0033928Y0209083D01*
X0033396Y0208642D01*
X0032788Y0208314D01*
X0032127Y0208110D01*
X0031440Y0208040D01*
X0030771Y0208117D01*
X0030129Y0208322D01*
X0029540Y0208649D01*
X0029027Y0209085D01*
X0028608Y0209612D01*
X0028300Y0210211D01*
X0028115Y0210859D01*
X0028059Y0211530D01*
X0028132Y0212202D01*
X0028335Y0212846D01*
X0028659Y0213439D01*
X0029093Y0213956D01*
X0029620Y0214380D01*
X0030219Y0214692D01*
X0030867Y0214881D01*
X0031540Y0214940D01*
X0032201Y0214880D01*
X0032259Y0214863D02*
X0030805Y0214863D01*
X0029601Y0214364D02*
X0033449Y0214364D01*
X0034025Y0213866D02*
X0029017Y0213866D01*
X0028620Y0213367D02*
X0034414Y0213367D01*
X0034684Y0212869D02*
X0028347Y0212869D01*
X0028185Y0212370D02*
X0034839Y0212370D01*
X0034919Y0211872D02*
X0028097Y0211872D01*
X0028072Y0211373D02*
X0034930Y0211373D01*
X0034880Y0210875D02*
X0028113Y0210875D01*
X0028253Y0210376D02*
X0034731Y0210376D01*
X0034501Y0209878D02*
X0028471Y0209878D01*
X0028793Y0209379D02*
X0034169Y0209379D01*
X0033684Y0208881D02*
X0029268Y0208881D01*
X0030022Y0208382D02*
X0032914Y0208382D01*
X0032230Y0204187D02*
X0032864Y0203997D01*
X0033450Y0203686D01*
X0033963Y0203267D01*
X0034385Y0202756D01*
X0034699Y0202173D01*
X0034893Y0201539D01*
X0034959Y0200880D01*
X0034899Y0200199D01*
X0034708Y0199544D01*
X0034392Y0198938D01*
X0033964Y0198406D01*
X0033440Y0197967D01*
X0032841Y0197639D01*
X0032189Y0197434D01*
X0031510Y0197360D01*
X0030831Y0197434D01*
X0030179Y0197638D01*
X0029580Y0197967D01*
X0029056Y0198405D01*
X0028628Y0198938D01*
X0028312Y0199543D01*
X0028120Y0200199D01*
X0028060Y0200880D01*
X0028139Y0201550D01*
X0028348Y0202191D01*
X0028678Y0202780D01*
X0029117Y0203292D01*
X0029647Y0203710D01*
X0030248Y0204016D01*
X0030897Y0204198D01*
X0031570Y0204250D01*
X0032230Y0204187D01*
X0033056Y0203896D02*
X0030012Y0203896D01*
X0029250Y0203397D02*
X0033804Y0203397D01*
X0034268Y0202899D02*
X0028780Y0202899D01*
X0028465Y0202400D02*
X0034577Y0202400D01*
X0034782Y0201902D02*
X0028254Y0201902D01*
X0028122Y0201403D02*
X0034907Y0201403D01*
X0034957Y0200905D02*
X0028063Y0200905D01*
X0028102Y0200406D02*
X0034918Y0200406D01*
X0034814Y0199908D02*
X0028205Y0199908D01*
X0028382Y0199409D02*
X0034638Y0199409D01*
X0034370Y0198910D02*
X0028650Y0198910D01*
X0029051Y0198412D02*
X0033969Y0198412D01*
X0033343Y0197913D02*
X0029677Y0197913D01*
X0031003Y0197415D02*
X0032017Y0197415D01*
X0031520Y0155660D02*
X0030851Y0155607D01*
X0030204Y0155425D01*
X0029606Y0155119D01*
X0029079Y0154703D01*
X0028643Y0154192D01*
X0028315Y0153606D01*
X0028108Y0152967D01*
X0028030Y0152300D01*
X0028082Y0151617D01*
X0028267Y0150957D01*
X0028577Y0150345D01*
X0029000Y0149806D01*
X0029521Y0149360D01*
X0030118Y0149024D01*
X0030769Y0148811D01*
X0031450Y0148730D01*
X0032140Y0148803D01*
X0032802Y0149010D01*
X0033412Y0149342D01*
X0033944Y0149787D01*
X0034380Y0150327D01*
X0034702Y0150942D01*
X0034898Y0151608D01*
X0034960Y0152300D01*
X0034887Y0152962D01*
X0034686Y0153598D01*
X0034365Y0154182D01*
X0033936Y0154692D01*
X0033416Y0155109D01*
X0032824Y0155417D01*
X0032184Y0155603D01*
X0031520Y0155660D01*
X0032400Y0155540D02*
X0030612Y0155540D01*
X0029507Y0155041D02*
X0033500Y0155041D01*
X0034062Y0154543D02*
X0028942Y0154543D01*
X0028560Y0154044D02*
X0034440Y0154044D01*
X0034702Y0153546D02*
X0028296Y0153546D01*
X0028134Y0153047D02*
X0034860Y0153047D01*
X0034932Y0152549D02*
X0028059Y0152549D01*
X0028049Y0152050D02*
X0034938Y0152050D01*
X0034881Y0151552D02*
X0028100Y0151552D01*
X0028240Y0151053D02*
X0034735Y0151053D01*
X0034499Y0150555D02*
X0028471Y0150555D01*
X0028804Y0150056D02*
X0034162Y0150056D01*
X0033670Y0149558D02*
X0029290Y0149558D01*
X0030056Y0149059D02*
X0032893Y0149059D01*
X0032201Y0144880D02*
X0032837Y0144692D01*
X0033425Y0144384D01*
X0033941Y0143966D01*
X0034366Y0143456D01*
X0034683Y0142873D01*
X0034880Y0142240D01*
X0034950Y0141580D01*
X0034885Y0140892D01*
X0034687Y0140230D01*
X0034364Y0139619D01*
X0033928Y0139083D01*
X0033396Y0138642D01*
X0032788Y0138314D01*
X0032127Y0138110D01*
X0031440Y0138040D01*
X0030771Y0138117D01*
X0030129Y0138322D01*
X0029540Y0138649D01*
X0029027Y0139085D01*
X0028608Y0139612D01*
X0028300Y0140211D01*
X0028115Y0140859D01*
X0028059Y0141530D01*
X0028132Y0142202D01*
X0028335Y0142846D01*
X0028659Y0143439D01*
X0029093Y0143956D01*
X0029620Y0144380D01*
X0030219Y0144692D01*
X0030867Y0144881D01*
X0031540Y0144940D01*
X0032201Y0144880D01*
X0033065Y0144573D02*
X0029990Y0144573D01*
X0029240Y0144074D02*
X0033808Y0144074D01*
X0034266Y0143576D02*
X0028774Y0143576D01*
X0028461Y0143077D02*
X0034572Y0143077D01*
X0034774Y0142579D02*
X0028251Y0142579D01*
X0028119Y0142080D02*
X0034897Y0142080D01*
X0034949Y0141582D02*
X0028065Y0141582D01*
X0028096Y0141083D02*
X0034903Y0141083D01*
X0034793Y0140585D02*
X0028193Y0140585D01*
X0028364Y0140086D02*
X0034611Y0140086D01*
X0034339Y0139588D02*
X0028627Y0139588D01*
X0029023Y0139089D02*
X0033933Y0139089D01*
X0033300Y0138591D02*
X0029646Y0138591D01*
X0030984Y0138092D02*
X0031949Y0138092D01*
X0031570Y0134250D02*
X0030897Y0134198D01*
X0030248Y0134016D01*
X0029647Y0133710D01*
X0029117Y0133292D01*
X0028678Y0132780D01*
X0028348Y0132191D01*
X0028139Y0131550D01*
X0028060Y0130880D01*
X0028120Y0130199D01*
X0028312Y0129543D01*
X0028628Y0128938D01*
X0029056Y0128405D01*
X0029580Y0127967D01*
X0030179Y0127638D01*
X0030831Y0127434D01*
X0031510Y0127360D01*
X0032189Y0127434D01*
X0032841Y0127639D01*
X0033440Y0127967D01*
X0033964Y0128406D01*
X0034392Y0128938D01*
X0034708Y0129544D01*
X0034899Y0130199D01*
X0034959Y0130880D01*
X0034893Y0131539D01*
X0034699Y0132173D01*
X0034385Y0132756D01*
X0033963Y0133267D01*
X0033450Y0133686D01*
X0032864Y0133997D01*
X0032230Y0134187D01*
X0031570Y0134250D01*
X0032508Y0134104D02*
X0030563Y0134104D01*
X0029514Y0133605D02*
X0033549Y0133605D01*
X0034096Y0133107D02*
X0028958Y0133107D01*
X0028582Y0132608D02*
X0034465Y0132608D01*
X0034718Y0132110D02*
X0028322Y0132110D01*
X0028159Y0131611D02*
X0034871Y0131611D01*
X0034936Y0131113D02*
X0028088Y0131113D01*
X0028083Y0130614D02*
X0034936Y0130614D01*
X0034875Y0130116D02*
X0028144Y0130116D01*
X0028290Y0129617D02*
X0034729Y0129617D01*
X0034486Y0129119D02*
X0028533Y0129119D01*
X0028883Y0128620D02*
X0034137Y0128620D01*
X0033625Y0128122D02*
X0029394Y0128122D01*
X0030227Y0127623D02*
X0032792Y0127623D01*
X0031520Y0085660D02*
X0030851Y0085607D01*
X0030204Y0085425D01*
X0029606Y0085119D01*
X0029079Y0084703D01*
X0028643Y0084192D01*
X0028315Y0083606D01*
X0028108Y0082967D01*
X0028030Y0082300D01*
X0028082Y0081617D01*
X0028267Y0080957D01*
X0028577Y0080345D01*
X0029000Y0079806D01*
X0029521Y0079360D01*
X0030118Y0079024D01*
X0030769Y0078811D01*
X0031450Y0078730D01*
X0032140Y0078803D01*
X0032802Y0079010D01*
X0033412Y0079342D01*
X0033944Y0079787D01*
X0034380Y0080327D01*
X0034702Y0080942D01*
X0034898Y0081608D01*
X0034960Y0082300D01*
X0034887Y0082962D01*
X0034686Y0083598D01*
X0034365Y0084182D01*
X0033936Y0084692D01*
X0033416Y0085109D01*
X0032824Y0085417D01*
X0032184Y0085603D01*
X0031520Y0085660D01*
X0033145Y0085250D02*
X0029862Y0085250D01*
X0029140Y0084751D02*
X0033862Y0084751D01*
X0034305Y0084253D02*
X0028695Y0084253D01*
X0028398Y0083754D02*
X0034600Y0083754D01*
X0034794Y0083256D02*
X0028202Y0083256D01*
X0028084Y0082757D02*
X0034909Y0082757D01*
X0034956Y0082259D02*
X0028033Y0082259D01*
X0028071Y0081760D02*
X0034911Y0081760D01*
X0034796Y0081262D02*
X0028182Y0081262D01*
X0028365Y0080763D02*
X0034608Y0080763D01*
X0034330Y0080265D02*
X0028640Y0080265D01*
X0029047Y0079766D02*
X0033919Y0079766D01*
X0033275Y0079268D02*
X0029685Y0079268D01*
X0031119Y0078769D02*
X0031822Y0078769D01*
X0031540Y0074940D02*
X0030867Y0074881D01*
X0030219Y0074692D01*
X0029620Y0074380D01*
X0029093Y0073956D01*
X0028659Y0073439D01*
X0028335Y0072846D01*
X0028132Y0072202D01*
X0028059Y0071530D01*
X0028115Y0070859D01*
X0028300Y0070211D01*
X0028608Y0069612D01*
X0029027Y0069085D01*
X0029540Y0068649D01*
X0030129Y0068322D01*
X0030771Y0068117D01*
X0031440Y0068040D01*
X0032127Y0068110D01*
X0032788Y0068314D01*
X0033396Y0068642D01*
X0033928Y0069083D01*
X0034364Y0069619D01*
X0034687Y0070230D01*
X0034885Y0070892D01*
X0034950Y0071580D01*
X0034880Y0072240D01*
X0034683Y0072873D01*
X0034366Y0073456D01*
X0033941Y0073966D01*
X0033425Y0074384D01*
X0032837Y0074692D01*
X0032201Y0074880D01*
X0031540Y0074940D01*
X0032536Y0074781D02*
X0030525Y0074781D01*
X0029499Y0074283D02*
X0033550Y0074283D01*
X0034093Y0073784D02*
X0028949Y0073784D01*
X0028576Y0073286D02*
X0034459Y0073286D01*
X0034710Y0072787D02*
X0028316Y0072787D01*
X0028160Y0072289D02*
X0034865Y0072289D01*
X0034927Y0071790D02*
X0028088Y0071790D01*
X0028079Y0071292D02*
X0034923Y0071292D01*
X0034855Y0070793D02*
X0028134Y0070793D01*
X0028276Y0070295D02*
X0034707Y0070295D01*
X0034458Y0069796D02*
X0028513Y0069796D01*
X0028858Y0069298D02*
X0034103Y0069298D01*
X0033585Y0068799D02*
X0029364Y0068799D01*
X0030197Y0068301D02*
X0032745Y0068301D01*
X0032230Y0064187D02*
X0032864Y0063997D01*
X0033450Y0063686D01*
X0033963Y0063267D01*
X0034385Y0062756D01*
X0034699Y0062173D01*
X0034893Y0061539D01*
X0034959Y0060880D01*
X0034899Y0060199D01*
X0034708Y0059544D01*
X0034392Y0058938D01*
X0033964Y0058406D01*
X0033440Y0057967D01*
X0032841Y0057639D01*
X0032189Y0057434D01*
X0031510Y0057360D01*
X0030831Y0057434D01*
X0030179Y0057638D01*
X0029580Y0057967D01*
X0029056Y0058405D01*
X0028628Y0058938D01*
X0028312Y0059543D01*
X0028120Y0060199D01*
X0028060Y0060880D01*
X0028139Y0061550D01*
X0028348Y0062191D01*
X0028678Y0062780D01*
X0029117Y0063292D01*
X0029647Y0063710D01*
X0030248Y0064016D01*
X0030897Y0064198D01*
X0031570Y0064250D01*
X0032230Y0064187D01*
X0033209Y0063814D02*
X0029852Y0063814D01*
X0029146Y0063315D02*
X0033904Y0063315D01*
X0034335Y0062817D02*
X0028710Y0062817D01*
X0028419Y0062318D02*
X0034621Y0062318D01*
X0034807Y0061820D02*
X0028227Y0061820D01*
X0028112Y0061321D02*
X0034915Y0061321D01*
X0034954Y0060823D02*
X0028065Y0060823D01*
X0028109Y0060324D02*
X0034910Y0060324D01*
X0034790Y0059826D02*
X0028229Y0059826D01*
X0028425Y0059327D02*
X0034595Y0059327D01*
X0034304Y0058829D02*
X0028715Y0058829D01*
X0029145Y0058330D02*
X0033874Y0058330D01*
X0033194Y0057832D02*
X0029826Y0057832D01*
D21*
X0284000Y0087500D03*
X0284000Y0095500D03*
D22*
X0286500Y0059945D03*
X0276500Y0059945D03*
X0266500Y0059945D03*
D23*
X0501500Y0051500D03*
X0511500Y0051500D03*
X0521500Y0051500D03*
X0531500Y0051500D03*
X0531500Y0301500D03*
X0521500Y0301500D03*
X0511500Y0301500D03*
X0501500Y0301500D03*
D24*
X0051500Y0323035D03*
X0051500Y0339965D03*
D25*
X0268429Y0314650D03*
X0268429Y0308350D03*
X0284571Y0308350D03*
X0284571Y0314650D03*
M02*
